<?xml version="1.0" encoding="utf-8"?>
<!-- Generator: Adobe Illustrator 22.1.0, SVG Export Plug-In . SVG Version: 6.00 Build 0)  -->
<svg version="1.1" id="Capa_1" xmlns="http://www.w3.org/2000/svg" xmlns:xlink="http://www.w3.org/1999/xlink" x="0px" y="0px"
	 viewBox="0 0 120 120" style="enable-background:new 0 0 120 120;" xml:space="preserve">
<style type="text/css">
	.st0{fill:#FFDC5D;}
	.st1{fill:#016D38;}
</style>
<g>
	<circle class="st0" cx="60" cy="60" r="60"/>
</g>
<path class="st1" d="M86.8,42.4c1.9-1.5,3.2-3.8,3.2-6.4c0-4.4-3.6-8-8-8s-8,3.6-8,8c0,3,1.6,5.6,4.1,7c-0.7,0.5-1.2,1.1-1.6,1.9
	L69.1,50L69,49.9c0-0.3,0-0.6,0-0.9c0-5-4-9-9-9s-9,4-9,9c0,0.3,0,0.6,0,0.9l-11,8.7c-1.2,0.9-1.9,2.3-2,3.8
	c-0.1,1.3,0.4,2.6,1.2,3.6H34c-2.2,0-4,1.8-4,4s1.8,4,4,4h3v9.5c0,1.2,0.5,2.3,1.3,3.2c0.9,0.8,2,1.3,3.2,1.3s2.3-0.5,3.2-1.3
	c0.8-0.9,1.3-2,1.3-3.2V83h10h1.8H74v0.5c0,1.2,0.5,2.3,1.3,3.2c0.9,0.8,2,1.3,3.2,1.3c0.2,0,0.3,0,0.5,0v0h5c1.7,0,3-1.3,3-3V73.9
	c1.7-0.4,3-2,3-3.9c0-1.1-0.4-2-1.1-2.7c0.7-0.6,1.1-1.4,1.1-2.3V47C90,44.9,88.7,43.1,86.8,42.4z M76,36c0-3.3,2.7-6,6-6s6,2.7,6,6
	s-2.7,6-6,6S76,39.3,76,36z M81,44h4c1.7,0,3,1.3,3,3v18c0,0.6-0.4,1-1,1h-1h-5.2c0.8-1,1.2-2.3,1.2-3.6c-0.1-1.5-0.8-2.9-2-3.8
	l-1.4-1.1l5.8-4.3l-1.2-1.6L77,56.2l-3.2-2.6l7.1-5.3l-1.2-1.6L78,48v-1C78,45.3,79.3,44,81,44z M76,47.6v1.8l-3.9,2.9l-1.4-1.1
	L76,47.6z M60,42c3.9,0,7,3.1,7,7s-3.1,7-7,7s-7-3.1-7-7S56.1,42,60,42z M41,65c-0.7-0.6-1-1.5-1-2.5c0-0.9,0.5-1.8,1.2-2.4
	l10.3-8.1c1.3,3.4,4.6,5.9,8.4,5.9s7.2-2.5,8.4-5.9l10.3,8.1c0.7,0.6,1.2,1.4,1.2,2.4c0,0.9-0.3,1.8-1,2.5c-0.7,0.6-1.5,1-2.5,1h0
	H63.2c-1.2,0.1-2.2-0.9-2.2-2c0.1-1.2,1.1-2.1,2.3-2h8.5v-2l-8.5,0c-1.3,0-2.5,0.5-3.3,1.5c-0.8-0.9-2-1.5-3.3-1.5h-8.5v2l8.6,0
	c1.2-0.1,2.2,0.9,2.2,2c-0.1,1.2-1,2.1-2.3,2h-2H43.4C42.5,66,41.7,65.7,41,65z M44,83.5c0,0.7-0.3,1.3-0.7,1.8
	c-0.9,0.9-2.6,0.9-3.5,0c-0.5-0.5-0.7-1.1-0.7-1.8V74h5v3v6V83.5z M46,74h28v3H57.8H57H46V74z M57.8,81H56H46v-2h11h0.8H74v2H57.8z
	 M76.7,85.3c-0.5-0.5-0.7-1.1-0.7-1.8V83v-6v-3h5v9.5c0,0.7-0.3,1.3-0.7,1.8C79.3,86.2,77.7,86.2,76.7,85.3z M84,86h-1.8
	c0.5-0.7,0.8-1.6,0.8-2.5V74h2v11C85,85.6,84.6,86,84,86z M86,72h-3h-9H46h-9h-3c-1.1,0-2-0.9-2-2s0.9-2,2-2h9.4h0h13.3
	c0,0,0.1,0,0.1,0c0,0,0,0,0,0h1.8h2.6h1.8c0,0,0,0,0,0c0.1,0,0.1,0,0.2,0h2H76h0.5h0H86c1.1,0,2,0.9,2,2S87.1,72,86,72z"/>
</svg>
