<?xml version="1.0" encoding="utf-8"?>
<!-- Generator: Adobe Illustrator 22.1.0, SVG Export Plug-In . SVG Version: 6.00 Build 0)  -->
<svg version="1.1" id="Capa_1" xmlns="http://www.w3.org/2000/svg" xmlns:xlink="http://www.w3.org/1999/xlink" x="0px" y="0px"
	 viewBox="0 0 130 130" style="enable-background:new 0 0 130 130;" xml:space="preserve">
<style type="text/css">
	.st0{fill:#FFDC5D;}
	.st1{fill:#016D38;}
	.st2{fill:none;}
</style>
<path class="st0" d="M68,45c0,0-10-6-10-14l1-5l4-1h3l2,2l3-2h4l3,2v4v2C78,33,76,40,68,45z"/>
<polygon class="st0" points="76,73 68,73 68,78.9 76,81 "/>
<path class="st0" d="M65,0C29.1,0,0,29.1,0,65s29.1,65,65,65s65-29.1,65-65S100.9,0,65,0z M65,123C33,123,7,97,7,65S33,7,65,7
	s58,26,58,58S97,123,65,123z"/>
<path class="st1" d="M65,15c-27.6,0-50,22.4-50,50s22.4,50,50,50s50-22.4,50-50S92.6,15,65,15z M65,110c-25.1,0-45.5-20.4-45.5-45.5
	S39.9,19,65,19s45.5,20.4,45.5,45.5S90.1,110,65,110z"/>
<g>
	<g>
		<path class="st1" d="M78.8,47.8c-5.2,0-9.4,4.2-9.4,9.4c0,5.2,4.2,9.4,9.4,9.4c5.2,0,9.4-4.2,9.4-9.4C88.2,52,84,47.8,78.8,47.8z
			 M78.8,63.7c-3.6,0-6.5-2.9-6.5-6.5c0-3.6,2.9-6.5,6.5-6.5c3.6,0,6.5,2.9,6.5,6.5C85.3,60.8,82.4,63.7,78.8,63.7z"/>
	</g>
	<g>
		<path class="st1" d="M56.8,44c-4.5,0-8.2,3.6-8.2,8.2c0,4.5,3.6,8.2,8.2,8.2c4.5,0,8.2-3.6,8.2-8.2C64.9,47.7,61.3,44,56.8,44z
			 M56.8,57.8c-3.1,0-5.7-2.5-5.7-5.7c0-3.1,2.5-5.7,5.7-5.7c3.1,0,5.7,2.5,5.7,5.7C62.4,55.3,59.9,57.8,56.8,57.8z"/>
	</g>
	<g>
		<path class="st1" d="M86.7,68.4h-3.1c-1.7,0-3.2,1.4-3.2,3.2v17.2c0,0.2,0,0.4-0.1,0.6c-0.2,0.5-0.8,0.9-1.4,0.9s-1.2-0.4-1.4-0.9
			c-0.1-0.2-0.1-0.4-0.1-0.6V71.6c0-1.7-1.4-3.2-3.2-3.2h-3.1c-1.7,0-3.2,1.4-3.2,3.2v2.8c0.7,0.2,1.5,0.4,2.3,0.4
			c0.5-1,1.5-1.7,2.7-1.7c1.6,0,3,1.3,3,3c0,1.6-1.3,3-3,3c-1.5,0-2.8-1.2-2.9-2.6c-0.8-0.1-1.5-0.2-2-0.4v13.2l-0.1,10.2h2.2
			c0,0.1,0,0.2,0,0.2v11.3c0,0.8,0.7,1.5,1.5,1.5s1.5-0.7,1.5-1.5V99.8c0-0.1,0-0.2,0-0.2h11.6c0,0.1,0,0.2,0,0.2v7.3
			c0,0.8,0.7,1.5,1.5,1.5s1.5-0.7,1.5-1.5v-7.3c0-0.1,0-0.2,0-0.2h2.2v-6.4v-3.8V71.6C89.9,69.8,88.5,68.4,86.7,68.4z"/>
		<path class="st1" d="M74.7,76.1c0-1-0.8-1.7-1.7-1.7c-1,0-1.7,0.8-1.7,1.7c0,1,0.8,1.7,1.7,1.7C73.9,77.8,74.7,77,74.7,76.1z"/>
	</g>
	<g>
		<path class="st2" d="M59.9,62.6c0.3-0.7,0.6-1.8,0.7-3.3c-0.8,0.4-1.6,0.8-2.6,0.9C58.6,61,59.2,61.8,59.9,62.6z"/>
		<path class="st2" d="M59.4,64.4C59.4,64.4,59.4,64.4,59.4,64.4C59.4,64.4,59.4,64.4,59.4,64.4z"/>
		<path class="st1" d="M59.4,64.4C59.4,64.4,59.4,64.4,59.4,64.4C59.4,64.3,59.4,64.4,59.4,64.4z"/>
		<path class="st1" d="M66.5,73.6c-0.3-0.1-0.5-0.3-0.8-0.5l-1.2-1c-2.8-2.8-3.3-7-3.4-7.9c0.4-0.7,1.3-2.8,1.3-6.2l-5.1,0.7
			c-0.9-2-1.2-3.9-1.2-4.9c0.3-0.2,0.4-0.6,0.4-0.9c0-0.7-0.6-1.3-1.3-1.3s-1.3,0.6-1.3,1.3c0,0.4,0.2,0.7,0.5,1
			c0.1,1.1,0.3,2.8,1.1,4.8l0.8,1.8c0.7,1.3,1.9,2.9,3.1,4c0,0,0,0,0,0c0.2,3.4,2.1,9.3,7.6,11.3c0,0,0.4,0.1,1,0.3v-1.7
			C67.5,74.1,66.9,73.9,66.5,73.6z M59.9,62.6c-0.7-0.8-1.3-1.6-1.8-2.4c0.9-0.2,1.8-0.5,2.6-0.9C60.5,60.8,60.2,61.9,59.9,62.6z"/>
	</g>
	<path class="st1" d="M72.7,76.6H62.5l-3.3-3.3l-2-8.6c0-1.6-1.3-3-3-3h-5.2c-1.7,0-3,1.4-3,3l-6,25.5c0,1.7,1.3,3,3,3h0v13
		c0,0.8,0.7,1.5,1.5,1.5s1.5-0.7,1.5-1.5v-13h11.1v17c0,0.8,0.7,1.5,1.5,1.5s1.5-0.7,1.5-1.5v-17h0c1.7,0,3-1.3,3-3l-1.8-7.7h11.2
		c0.9,0,1.6-0.7,1.6-1.6v-2.7C74.3,77.3,73.5,76.6,72.7,76.6z"/>
</g>
<g>
	<g>
		<g>
			<g>
				<g>
					<g>
						<path class="st1" d="M58.5,35c0.4-0.1,0.5-0.5,0.4-0.9c-0.4-1-0.6-2-0.6-3c0-2.1,0.7-5.7,5.5-5.7c1.7,0,2.3,0.6,3,1.3
							c0.2,0.2,0.5,0.4,0.7,0.7c0.2,0.2,0.6,0.2,0.8,0c0.3-0.2,0.5-0.4,0.7-0.7c0.7-0.7,1.3-1.3,3-1.3c5,0,5.5,4,5.5,5.7
							c0,1-0.2,2-0.6,3c-0.1,0.4,0.1,0.8,0.4,0.9c0.1,0,0.2,0,0.2,0c0.3,0,0.5-0.2,0.6-0.5c0.4-1.2,0.7-2.3,0.7-3.5
							c0-4.4-2.6-7.1-6.9-7.1c-2.2,0-3.2,0.9-3.9,1.6c-0.1,0.1-0.1,0.1-0.2,0.2c-0.1-0.1-0.1-0.1-0.2-0.2C67,24.9,66.1,24,63.9,24
							c-4.3,0-6.9,2.7-6.9,7.1c0,1.1,0.2,2.3,0.7,3.5C57.8,34.9,58.2,35.1,58.5,35z"/>
					</g>
				</g>
			</g>
		</g>
	</g>
	<g>
		<g>
			<g>
				<g>
					<g>
						<path class="st1" d="M73.7,39.4c-2.2,2.5-4.7,4.4-5.7,5.1c-0.9-0.7-3.5-2.6-5.7-5.1c-0.3-0.3-0.7-0.3-1-0.1
							c-0.3,0.2-0.3,0.7-0.1,1c2.9,3.3,6.2,5.5,6.3,5.6C67.7,46,67.9,46,68,46c0.1,0,0.3,0,0.4-0.1c0.1-0.1,3.4-2.3,6.3-5.6
							c0.2-0.3,0.2-0.7-0.1-1C74.4,39,73.9,39.1,73.7,39.4z"/>
					</g>
				</g>
			</g>
		</g>
	</g>
	<g>
		<g>
			<g>
				<g>
					<g>
						<path class="st1" d="M78.3,36.4h-5l-1.9-7.1c-0.1-0.3-0.4-0.5-0.7-0.5c0,0,0,0,0,0c-0.3,0-0.6,0.2-0.7,0.5L67.9,38l-2-6
							c-0.1-0.3-0.3-0.5-0.6-0.5c-0.3,0-0.5,0.2-0.7,0.4l-1.9,4.4h-5c-0.4,0-0.7,0.3-0.7,0.7c0,0.4,0.3,0.7,0.7,0.7h5.5
							c0.3,0,0.5-0.2,0.6-0.4l1.4-3.2l2.2,6.5c0.1,0.3,0.4,0.5,0.7,0.5c0,0,0,0,0,0c0.3,0,0.6-0.2,0.6-0.5l2.1-8.4l1.4,5
							c0.1,0.3,0.4,0.5,0.7,0.5h5.5c0.4,0,0.7-0.3,0.7-0.7C79,36.7,78.7,36.4,78.3,36.4z"/>
					</g>
				</g>
			</g>
		</g>
	</g>
</g>
</svg>
