<?xml version="1.0" encoding="utf-8"?>
<!-- Generator: Adobe Illustrator 22.1.0, SVG Export Plug-In . SVG Version: 6.00 Build 0)  -->
<svg version="1.1" id="Capa_1" xmlns="http://www.w3.org/2000/svg" xmlns:xlink="http://www.w3.org/1999/xlink" x="0px" y="0px"
	 viewBox="0 0 120 120" style="enable-background:new 0 0 120 120;" xml:space="preserve">
<style type="text/css">
	.st0{fill:#FFDC5D;}
	.st1{fill:#016D38;}
</style>
<g>
	<circle class="st0" cx="60" cy="60" r="60"/>
</g>
<g>
	<path class="st1" d="M88,34H68.1c-0.3-4.5-4-8-8.5-8s-8.2,3.5-8.5,8H32c-0.6,0-1,0.4-1,1v56c0,0.6,0.4,1,1,1h56c0.6,0,1-0.4,1-1V35
		C89,34.4,88.6,34,88,34z M73,47c0.6,0,1-0.4,1-1v-6h9v46H37V40h8v6c0,0.6,0.4,1,1,1H73z M45,38h-9c-0.6,0-1,0.4-1,1v48
		c0,0.6,0.4,1,1,1h48c0.6,0,1-0.4,1-1V39c0-0.6-0.4-1-1-1H74v-2h13v54H33V36h12V38z M59.6,28c3.6,0,6.5,2.9,6.5,6.5
		c0,0.2,0,1.3,0,1.5h0.1h1.9H72v9H47v-9h4.1H53h0.1c0-0.2,0-1.3,0-1.5C53.1,30.9,56,28,59.6,28z"/>
	<circle class="st1" cx="59.5" cy="35.5" r="2.5"/>
	<path class="st1" d="M60,56h16c0.6,0,1-0.4,1-1v-3c0-0.6-0.4-1-1-1H60c-0.6,0-1,0.4-1,1v3C59,55.6,59.4,56,60,56z M61,53h14v1H61
		V53z"/>
	<path class="st1" d="M60,63h11c0.6,0,1-0.4,1-1v-3c0-0.6-0.4-1-1-1H60c-0.6,0-1,0.4-1,1v3C59,62.6,59.4,63,60,63z M61,60h9v1h-9V60
		z"/>
	<path class="st1" d="M76,76H44c-0.6,0-1,0.4-1,1v4c0,0.6,0.4,1,1,1h32c0.6,0,1-0.4,1-1v-4C77,76.4,76.6,76,76,76z M49,80h-4v-2h4
		V80z M75,80H51v-2h24V80z"/>
	<path class="st1" d="M76,68H44c-0.6,0-1,0.4-1,1v4c0,0.6,0.4,1,1,1h32c0.6,0,1-0.4,1-1v-4C77,68.4,76.6,68,76,68z M49,72h-4v-2h4
		V72z M75,72H51v-2h24V72z"/>
	<path class="st1" d="M46,54h-1c-1.1,0-2,0.9-2,2v2c0,1.1,0.9,2,2,2h1v1c0,1.1,0.9,2,2,2h2c1.1,0,2-0.9,2-2v-1h1c1.1,0,2-0.9,2-2v-2
		c0-1.1-0.9-2-2-2h-1v-1c0-1.1-0.9-2-2-2h-2c-1.1,0-2,0.9-2,2V54z M48,56v-3h2v3h3v2h-3v3h-2v-3h-3v-2H48z"/>
</g>
</svg>
