<?xml version="1.0" encoding="utf-8"?>
<!-- Generator: Adobe Illustrator 22.1.0, SVG Export Plug-In . SVG Version: 6.00 Build 0)  -->
<svg version="1.1" id="Capa_1" xmlns="http://www.w3.org/2000/svg" xmlns:xlink="http://www.w3.org/1999/xlink" x="0px" y="0px"
	 viewBox="0 0 50 71" style="enable-background:new 0 0 50 71;" xml:space="preserve">
<style type="text/css">
	.st0{fill:#016D38;}
	.st1{fill:none;}
</style>
<g>
	<path class="st0" d="M38.8,3.8c-5.2,0-9.4,4.2-9.4,9.4c0,5.2,4.2,9.4,9.4,9.4c5.2,0,9.4-4.2,9.4-9.4C48.3,8,44,3.8,38.8,3.8z
		 M38.8,19.7c-3.6,0-6.6-2.9-6.6-6.5c0-3.6,2.9-6.5,6.6-6.5c3.6,0,6.6,2.9,6.6,6.5C45.4,16.8,42.5,19.7,38.8,19.7z"/>
</g>
<g>
	<path class="st0" d="M16.8,0c-4.5,0-8.2,3.6-8.2,8.2c0,4.5,3.7,8.2,8.2,8.2c4.5,0,8.2-3.6,8.2-8.2C24.9,3.7,21.3,0,16.8,0z
		 M16.8,13.8c-3.1,0-5.7-2.5-5.7-5.7c0-3.1,2.5-5.7,5.7-5.7c3.1,0,5.7,2.5,5.7,5.7C22.4,11.3,19.9,13.8,16.8,13.8z"/>
</g>
<g>
	<path class="st0" d="M46.8,24.4h-3.1c-1.8,0-3.2,1.4-3.2,3.2v17.2c0,0.2,0,0.4-0.1,0.6c-0.2,0.5-0.8,0.9-1.4,0.9s-1.2-0.4-1.4-0.9
		c-0.1-0.2-0.1-0.4-0.1-0.6V27.6c0-1.7-1.4-3.2-3.2-3.2h-3.1c-1.8,0-3.2,1.4-3.2,3.2v2.8c0.7,0.2,1.5,0.4,2.3,0.4
		c0.5-1,1.5-1.7,2.7-1.7c1.7,0,3,1.3,3,3c0,1.6-1.3,3-3,3c-1.5,0-2.8-1.2-3-2.6c-0.8-0.1-1.5-0.2-2-0.4v13.2L28,55.5h2.2
		c0,0.1,0,0.2,0,0.2v13.3c0,0.8,0.7,1.5,1.5,1.5c0.8,0,1.5-0.7,1.5-1.5V55.8c0-0.1,0-0.2,0-0.2h11.7c0,0.1,0,0.2,0,0.2v13.3
		c0,0.8,0.7,1.5,1.5,1.5c0.8,0,1.5-0.7,1.5-1.5V55.8c0-0.1,0-0.2,0-0.2H50v-6.4v-3.8V27.6C50,25.8,48.6,24.4,46.8,24.4z"/>
	<path class="st0" d="M34.7,32.1c0-1-0.8-1.7-1.7-1.7c-1,0-1.7,0.8-1.7,1.7c0,1,0.8,1.7,1.7,1.7C33.9,33.8,34.7,33,34.7,32.1z"/>
</g>
<g>
	<path class="st1" d="M19.9,18.6c0.3-0.7,0.6-1.8,0.7-3.3c-0.8,0.4-1.6,0.8-2.6,0.9C18.6,17,19.2,17.8,19.9,18.6z"/>
	<path class="st1" d="M19.4,20.4C19.4,20.4,19.4,20.4,19.4,20.4C19.4,20.4,19.4,20.4,19.4,20.4z"/>
	<path class="st0" d="M19.4,20.4C19.4,20.4,19.4,20.4,19.4,20.4C19.4,20.3,19.4,20.4,19.4,20.4z"/>
	<path class="st0" d="M26.5,29.6c-0.3-0.1-0.5-0.3-0.8-0.5l-1.2-1c-2.8-2.8-3.3-7-3.4-7.9c0.4-0.7,1.4-2.8,1.3-6.2l-5.1,0.7
		c-0.9-2-1.2-3.9-1.2-4.9c0.3-0.2,0.4-0.6,0.4-0.9c0-0.7-0.6-1.3-1.3-1.3s-1.3,0.6-1.3,1.3c0,0.4,0.2,0.7,0.5,1
		c0.1,1.1,0.3,2.8,1.1,4.8l0.8,1.8c0.7,1.3,1.9,2.9,3.2,4c0,0,0,0,0,0c0.2,3.4,2.1,9.3,7.6,11.3c0,0,0.4,0.1,1,0.3v-1.7
		C27.5,30.1,27,29.9,26.5,29.6z M19.9,18.6c-0.7-0.8-1.3-1.6-1.8-2.4c0.9-0.2,1.8-0.5,2.6-0.9C20.5,16.8,20.2,17.9,19.9,18.6z"/>
</g>
<path class="st0" d="M32.7,32.6H22.5l-3.3-3.3l-2-8.6c0-1.6-1.4-3-3-3H9c-1.7,0-3,1.4-3,3L0,46.2c0,1.7,1.4,3,3,3h0v13
	c0,0.8,0.7,1.5,1.5,1.5s1.5-0.7,1.5-1.5v-13h11.2v13c0,0.8,0.7,1.5,1.5,1.5c0.8,0,1.5-0.7,1.5-1.5v-13h0c1.7,0,3-1.3,3-3l-1.8-7.7
	h11.3c0.9,0,1.6-0.7,1.6-1.6v-2.7C34.3,33.3,33.6,32.6,32.7,32.6z"/>
</svg>
