<?xml version="1.0" encoding="utf-8"?>
<!-- Generator: Adobe Illustrator 22.1.0, SVG Export Plug-In . SVG Version: 6.00 Build 0)  -->
<svg version="1.1" id="Capa_1" xmlns="http://www.w3.org/2000/svg" xmlns:xlink="http://www.w3.org/1999/xlink" x="0px" y="0px"
	 viewBox="0 0 120 120" style="enable-background:new 0 0 120 120;" xml:space="preserve">
<style type="text/css">
	.st0{fill:#FFDC5D;}
	.st1{fill:#016D38;}
</style>
<g>
	<circle class="st0" cx="60" cy="60" r="60"/>
</g>
<g>
	<path class="st1" d="M71.7,63.2h-3.2v-3.2c0-0.7-0.6-1.3-1.3-1.3s-1.3,0.6-1.3,1.3v3.2h-3.2c-0.7,0-1.3,0.6-1.3,1.3
		c0,0.7,0.6,1.3,1.3,1.3h3.2v3.2c0,0.7,0.6,1.3,1.3,1.3c0.7,0,1.3-0.6,1.3-1.3v-3.2h3.2c0.7,0,1.3-0.6,1.3-1.3
		C73,63.7,72.4,63.2,71.7,63.2z"/>
	<path class="st1" d="M83.5,45.1V41c0-0.7-0.6-1.3-1.3-1.3h-3.1c0-0.1,0.1-0.2,0.1-0.4v-2.1c0-0.7-0.6-1.3-1.3-1.3H57.2l-1.5-2.4
		c-0.2-0.4-0.6-0.6-1.1-0.6H32.9c-0.7,0-1.3,0.6-1.3,1.3v43.2c0,4.2,3.4,7.6,7.6,7.6H41c0.1,0,0.3,0,0.4,0h39.3
		c4.2,0,7.6-3.4,7.6-7.6V52.2C88.3,49,86.3,46.2,83.5,45.1z M46.1,45.9v31.5c0,2.7-2.1,4.9-4.7,5H41c-0.1,0-0.1,0-0.2,0h-1.6
		c-2.8,0-5-2.3-5-5V35.5H54l1.5,2.4c0.2,0.4,0.6,0.6,1.1,0.6h20.1v0.8c0,0.1,0,0.2,0.1,0.4H42.3c-0.7,0-1.3,0.6-1.3,1.3v24.1v3v9.3
		c0,0.7,0.6,1.3,1.3,1.3c0.7,0,1.3-0.6,1.3-1.3v-9.3v-3V42.2h37.4v2.4c-0.1,0-0.1,0-0.2,0H47.3C46.6,44.6,46.1,45.2,46.1,45.9z
		 M85.8,77.4c0,2.8-2.3,5-5,5H46.7c1.2-1.3,1.9-3.1,1.9-5V47.2h32.2c2.8,0,5,2.3,5,5V77.4z"/>
	<path class="st1" d="M37.9,39.7c-0.7,0-1.3,0.6-1.3,1.3v14.2v6v16.3c0,0.7,0.6,1.3,1.3,1.3s1.3-0.6,1.3-1.3V61.1v-6V41
		C39.1,40.3,38.6,39.7,37.9,39.7z"/>
</g>
</svg>
