<?xml version="1.0" encoding="utf-8"?>
<!-- Generator: Adobe Illustrator 22.1.0, SVG Export Plug-In . SVG Version: 6.00 Build 0)  -->
<svg version="1.1" id="Capa_1" xmlns="http://www.w3.org/2000/svg" xmlns:xlink="http://www.w3.org/1999/xlink" x="0px" y="0px"
	 viewBox="0 0 194 158" style="enable-background:new 0 0 194 158;" xml:space="preserve">
<style type="text/css">
	.st0{fill:#016D38;}
</style>
<g>
	<path class="st0" d="M84,123C84,123,84.1,123,84,123c2.5,0,4.4-2,4.3-4.4l-1.4-77.2c0-2.4-2.1-4.3-4.4-4.2c-2.4,0-4.3,2-4.2,4.4
		l1.4,77.2C79.8,121.1,81.7,123,84,123z"/>
	<path class="st0" d="M133.2,37.2L133.2,37.2c-2.4,0-4.3,1.8-4.4,4.2l-2.9,89.3c0,2-1.7,3.7-3.7,3.7H66.7c-2,0-3.7-1.7-3.7-3.8
		l-2.9-89.2c-0.1-2.4-2.2-4.3-4.4-4.2c-2.4,0.1-4.2,2.1-4.2,4.4l2.9,89c0,6.8,5.5,12.3,12.3,12.3h55.5c6.8,0,12.3-5.5,12.3-12.2
		l2.9-89.2C137.5,39.3,135.6,37.3,133.2,37.2z"/>
	<path class="st0" d="M105,123c2.3,0,4.3-1.9,4.3-4.2l1.4-77.2c0-2.4-1.8-4.3-4.2-4.4c-2.3-0.1-4.3,1.8-4.4,4.2l-1.4,77.2
		C100.7,121,102.5,123,105,123L105,123z"/>
	<path class="st0" d="M140.5,22.9h-21.9l-2.2-10.4c-0.4-2-2.2-3.4-4.2-3.4H77c-2,0-3.8,1.4-4.2,3.4l-2.2,10.4h-22
		c-2.4,0-4.3,1.9-4.3,4.3s1.9,4.3,4.3,4.3H74c0,0,0,0,0.1,0H115l0,0l0,0h25.4c2.4,0,4.3-1.9,4.3-4.3
		C144.8,24.8,142.8,22.9,140.5,22.9z M79.3,22.9l1.1-5.2h28.2l1.1,5.2H79.3z"/>
</g>
</svg>
