<?xml version="1.0" encoding="utf-8"?>
<!-- Generator: Adobe Illustrator 23.0.2, SVG Export Plug-In . SVG Version: 6.00 Build 0)  -->
<svg version="1.1" id="Layer_1" xmlns="http://www.w3.org/2000/svg" xmlns:xlink="http://www.w3.org/1999/xlink" x="0px" y="0px"
	 viewBox="0 0 17.7 23.8" style="enable-background:new 0 0 17.7 23.8;" xml:space="preserve">
<style type="text/css">
	.st0{fill:#016D38;}
</style>
<g>
	<g>
		<g>
			<path class="st0" d="M16.8,8.8c0.4,0,0.8-0.4,0.8-0.8V5.7c0-0.4-0.4-0.8-0.8-0.8h-1.2V3.7c0-0.7-0.5-1.2-1.2-1.2h-10H1.6H1.2
				C0.6,2.5,0.1,3,0.1,3.7v16.6c0,0.7,0.5,1.2,1.2,1.2h0.4h2.8h10c0.7,0,1.2-0.5,1.2-1.2v-1.2h1.2c0.4,0,0.8-0.4,0.8-0.8v-2.4
				c0-0.4-0.4-0.8-0.8-0.8h-1.2V14h1.2c0.4,0,0.8-0.4,0.8-0.8v-2.4c0-0.4-0.4-0.8-0.8-0.8h-1.2V8.8H16.8z M1.2,20.7
				c-0.2,0-0.4-0.2-0.4-0.4V3.7c0-0.2,0.2-0.4,0.4-0.4h0.4v17.4H1.2z M16.8,15.9l0,2.4h-1.2v-2.4H16.8z M16.8,10.8l0,2.4h-1.2v-2.4
				H16.8z M2.5,3.3h11.9c0.2,0,0.4,0.2,0.4,0.4v1.2v4V10v4v1.2v4v1.2c0,0.2-0.2,0.4-0.4,0.4H2.5V3.3z"/>
			<path class="st0" d="M11,17.9H5.5c-0.2,0-0.4,0.2-0.4,0.4s0.2,0.4,0.4,0.4H11c0.2,0,0.4-0.2,0.4-0.4S11.2,17.9,11,17.9z"/>
			<path class="st0" d="M11,16.1H5.5c-0.2,0-0.4,0.2-0.4,0.4s0.2,0.4,0.4,0.4H11c0.2,0,0.4-0.2,0.4-0.4S11.2,16.1,11,16.1z"/>
		</g>
		<g>
			<path class="st0" d="M11.7,11.4C11.7,11.4,11.7,11.4,11.7,11.4c-0.1,0-0.2,0.1-0.2,0.2c0,0.1,0.1,0.2,0.2,0.2
				c0.2,0,0.4,0.2,0.4,0.4c0,0.2-0.2,0.4-0.4,0.4c0,0,0,0,0,0c-0.1,0-0.2,0.1-0.2,0.2c0,0.1,0.1,0.2,0.2,0.2c0.4,0,0.7-0.3,0.7-0.7
				C12.4,11.7,12.1,11.4,11.7,11.4z"/>
			<path class="st0" d="M12.5,4.1H4.8c-0.7,0-1.3,0.6-1.3,1.3v7.5c0,0.7,0.6,1.3,1.3,1.3h7.7c0.7,0,1.3-0.6,1.3-1.3V5.3
				C13.8,4.6,13.2,4.1,12.5,4.1z M12,13.1c-0.5,0.2-1.1-0.1-1.3-0.7c-0.2-0.5,0.1-1.1,0.7-1.3V9.8c0-0.5-0.4-0.9-0.8-0.9
				c-0.5,0-0.8,0.4-0.8,0.9v1.7c0,0.9-0.7,1.6-1.5,1.6c-0.9,0-1.5-0.7-1.5-1.6v-1.3C5.7,10,5,9.4,5,8.6V6.3c0-0.5,0.4-0.8,1-0.8h0.2
				c0,0,0,0,0,0c0.2,0,0.3,0.1,0.3,0.3c0,0.2-0.1,0.3-0.3,0.3H5.9c-0.2,0-0.3,0.1-0.3,0.2v2.2c0,0.5,0.6,0.9,1.2,0.9
				c0.7,0,1.2-0.4,1.2-0.9V6.3c0-0.1-0.1-0.2-0.3-0.2H7.5c0,0,0,0,0,0C7.3,6.1,7.1,6,7.1,5.8s0.1-0.3,0.3-0.3h0.3c0.5,0,1,0.4,1,0.8
				v2.2c0,0.8-0.7,1.4-1.5,1.5v1.3c0,0.6,0.4,1,0.9,1c0.5,0,0.9-0.4,0.9-1V9.8c0-0.9,0.7-1.6,1.5-1.6c0.8,0,1.5,0.7,1.5,1.6v1.4
				c0.3,0.1,0.6,0.3,0.7,0.7C12.8,12.4,12.5,12.9,12,13.1z"/>
		</g>
	</g>
</g>
<path class="st0" d="M14.7,22.4c0,0.8-2.6,1.4-5.9,1.4c-3.3,0-5.9-0.6-5.9-1.4S5.6,21,8.8,21C12.1,21,14.7,21.6,14.7,22.4"/>
</svg>
