<?xml version="1.0" encoding="utf-8"?>
<!-- Generator: Adobe Illustrator 22.1.0, SVG Export Plug-In . SVG Version: 6.00 Build 0)  -->
<svg version="1.1" id="Capa_1" xmlns="http://www.w3.org/2000/svg" xmlns:xlink="http://www.w3.org/1999/xlink" x="0px" y="0px"
	 viewBox="0 0 194 158" style="enable-background:new 0 0 194 158;" xml:space="preserve">
<style type="text/css">
	.st0{fill:#016D38;}
</style>
<path class="st0" d="M146.2,136.4H66.5c4-1.9,6.5-3.3,6.8-3.5c3.2-1.8,6.3-5.2,6.7-5.7l66.2-78.5c0.1-0.1,0.2-0.2,0.2-0.3
	c9.4-13.5,1.6-26-3.8-30.7c-13-11.8-25.2-5.6-29.9-0.5l-69,81.5c-5.7,6.7-9.7,30.1-10.5,34.6c-1,5.7,1.4,8.3,2.5,9.2l0.8,0.6
	c1.1,1,2.3,1.5,3.6,1.7c0.3,0.1,0.7,0.1,1,0.1h0.5l0,0l0,0h104.6c2.4,0,4.3-1.9,4.3-4.3S148.6,136.4,146.2,136.4z M77.5,116.7
	L77.5,116.7l-22-18.6l55.6-65.7L133,50.9L77.5,116.7z M136.8,24.1C136.9,24.1,136.9,24.1,136.8,24.1c1.1,0.9,9.5,9,2.6,19.2
	l-0.9,1.1l-21.9-18.5l2.5-3C120,22.1,127,15.1,136.8,24.1z M41.8,134.7c1.6-10.1,5.2-25.6,8.2-30l21.9,18.4
	c-0.9,0.8-1.9,1.7-2.8,2.2c-0.1,0.1-12.2,6.8-25.8,10.6c-0.2,0-0.3,0.1-0.4,0.1c-0.2,0.1-0.7,0.2-1,0.2l-0.1-0.1
	C41.6,136,41.6,135.5,41.8,134.7z"/>
</svg>
