<?xml version="1.0" encoding="utf-8"?>
<!-- Generator: Adobe Illustrator 21.0.0, SVG Export Plug-In . SVG Version: 6.00 Build 0)  -->
<svg version="1.1" id="Capa_1" xmlns="http://www.w3.org/2000/svg" xmlns:xlink="http://www.w3.org/1999/xlink" x="0px" y="0px"
	 viewBox="0 0 409 160" style="enable-background:new 0 0 409 160;" xml:space="preserve">
<style type="text/css">
	.st0{fill:#016D38;}
	.st1{fill:#FFFFFF;}
</style>
<path class="st0" d="M0,130.3c0,0,86.4,49.6,204.6,20.5S388,0,388,0H0V130.3z"/>
<g>
	<g>
		<path class="st1" d="M141.6,80.5c-0.9-0.1-1.9-1.1-3.2-3c-0.7-1.2-1.5-2.4-2.2-3.7c2.3-0.4,3.4-1.7,3.4-3.8c0-1.2-0.6-2.2-1.7-2.8
			c-0.9-0.5-2-0.7-3.3-0.7c-0.5,0-1.3,0-2.3,0.1c-2.3,0.1-4.2,0-4.9-0.1l-0.2,0v0.5c0,0,2.4,0.4,2.4,1.2c0,0.1,0,0.8,0,1.9v8.2
			c0,0.8-0.1,1.2-0.1,1.5c-0.2,0.5-1.9,0.9-1.9,0.9l-0.1,0.5l0.2,0c1.2-0.1,2.3-0.1,3.4-0.1c1.1,0,2.2,0,3.2,0.1l0.2,0v-0.5
			c0,0-1.7-0.5-2.2-0.8c-0.2-0.2-0.3-0.6-0.3-1.2c0-0.1,0-0.5,0-0.9c0-0.5,0-0.9,0-1.2v-2.3l1.5,0c1.8,2.3,3.1,4.5,4.4,6.8l0,0.1
			c0,0,1.2-0.1,1.8-0.1c0.6,0,1.2,0,1.7,0.1l0.2,0l0-0.6L141.6,80.5z M133.5,72.8H132v-5.1c0,0,2,0,2,0c2.1,0,3,0.8,3,2.5
			c0,1-0.4,1.7-1.1,2.1C135.5,72.7,134.6,72.8,133.5,72.8z"/>
		<path class="st1" d="M51.3,74.3c-0.6-0.4-1.3-0.7-2.2-0.8c0.6-0.2,1.1-0.4,1.7-0.7c0.9-0.6,1.4-1.7,1.4-2.5c0-1.3-0.5-2.3-1.6-3
			c-0.9-0.6-2-0.8-3.3-0.8c0,0-1.2,0-3.5,0.1c-0.4,0-0.8,0-1.1,0c-1.4,0-2.5-0.1-2.5-0.1v0.5c0,0,2.2,0.3,2.4,1.3
			c0,0.1,0.1,10.7-0.1,11c-0.4,0.9-2.3,1.2-2.3,1.2V81c0,0,1.4-0.1,2.9-0.1c0.3,0,0.7,0,1.1,0C46.7,81,47.9,81,48,81
			c1.3,0,2.4-0.3,3.3-0.9c1-0.7,1.6-1.7,1.6-3C52.9,75.9,52.3,74.9,51.3,74.3z M44.7,70c0-0.7,0-1.4,0.1-2.3c0.5,0,1.1,0,1.7,0
			c2.2,0,3.1,0.7,3.2,2.5c0,1.7-1,2.4-3.4,2.5h-1.5L44.7,70z M46.5,79.8L46.5,79.8C46.5,79.8,46.5,79.8,46.5,79.8
			C46.5,79.8,46.5,79.8,46.5,79.8z M46.3,79.7C46.3,79.7,46.3,79.7,46.3,79.7C46.3,79.7,46.3,79.7,46.3,79.7
			C46.3,79.7,46.3,79.7,46.3,79.7L46.3,79.7c-0.1,0-0.6,0-1.5-0.1c0-0.5,0-0.8,0-1.2v-4.2h1.4c2.8,0,4.1,1,4.2,2.9
			C50.3,79,49.1,79.7,46.3,79.7z"/>
		<path class="st1" d="M64.1,66.2c-2.2,0-4,0.7-5.4,2.2c-1.3,1.4-2,3.3-2,5.5c0,2.1,0.6,3.9,1.9,5.3c1.3,1.4,3,2.2,5.1,2.2h0
			c2.2,0,4-0.8,5.3-2.4c1.2-1.5,1.8-3.4,1.8-5.6h0c0-2.1-0.6-3.7-1.8-5.1C67.9,66.9,66.2,66.2,64.1,66.2z M68.2,74.3
			c0,1.6-0.3,2.9-0.9,3.9C66.5,79.4,65.5,80,64,80c-1.7,0-2.8-0.8-3.6-2.5c-0.6-1.2-0.9-2.8-0.9-4.7c0-1.5,0.4-2.7,1.1-3.7
			c0.8-1.1,1.9-1.6,3.3-1.7C66.8,67.5,68.2,69.7,68.2,74.3L68.2,74.3z"/>
		<g>
			<path class="st1" d="M82.8,79.4h-4.1v-9.2c0-1.1,0-1.7,0-2c0.1-0.9,2.5-1.3,2.5-1.3v-0.5c0,0-2.5,0.2-3.7,0.2
				c-1.2,0-3.6-0.2-3.6-0.2v0.5c0,0,2.4,0.4,2.4,1.3c0,0.1,0,0.8,0,1.8v7.8c0,0.8,0,1.1-0.1,1.5c-0.4,0.9-2.3,1.1-2.3,1.1V81l0.1,0
				c1.5-0.1,3.2-0.1,5.1-0.1c1.9,0,3.9,0,6,0.1l0.1,0l0.2-3.9h-0.6C84.9,77.2,84.6,79.5,82.8,79.4z"/>
		</g>
		<g>
			<path class="st1" d="M95.2,62.6L95.2,62.6c0-0.7-0.6-1.1-1.1-1.1c-0.4,0-0.7,0.2-1.1,0.5l-3,3.5h1.1l3.5-2
				C95,63.3,95.2,63,95.2,62.6L95.2,62.6z"/>
			<path class="st1" d="M91.7,66.6c-0.8,0-2-0.1-3.4-0.2l-0.2,0v0.5c0,0,2,0.4,2.2,1.5c0.1,0.5,0.1,1.4,0.1,2.3c0,0,0.1,3.4,0,5.2
				c0,2.4-0.1,3.5-0.7,4c-0.5,0.5-1.6,0.6-1.6,0.6V81l0.2,0c1.3-0.1,2.4-0.2,3.4-0.2c0.8,0,1.9,0.1,3.3,0.2l0.2,0v-0.6
				c0,0-1.1-0.2-1.7-0.6c-0.4-0.3-0.7-1.6-0.7-4c0-0.3,0-5,0-5.2c0-0.9,0-1.8,0.1-2.3c0.1-1.2,2.2-1.5,2.2-1.5v-0.5l-0.2,0
				C93.5,66.6,92.5,66.6,91.7,66.6z"/>
		</g>
		<g>
			<path class="st1" d="M111.6,66.9l0.1,0v-0.5l-0.2,0c-0.7,0.1-1.4,0.1-2.1,0.1c-0.7,0-1.5,0-2.4-0.1l-0.2,0v0.5l0.1,0
				c0.6,0.2,1.4,0.4,1.4,0.7c-0.3,1.3-2.6,7.4-3.2,8.9c-0.5-1.1-3.5-8.6-3.5-8.8c0,0-0.2-0.4,1.6-0.8l0.1,0v-0.5c0,0-2,0.1-3,0.1
				c-2.4,0-3.1-0.1-3.1-0.1v0.5c0,0,1.4,0.4,1.8,1.3c1.5,3.4,3.2,7.8,5.1,13l0,0.1h0.7l0-0.1c1.4-3.7,4.3-11.2,5.1-13
				C110.4,67.5,110.9,67.1,111.6,66.9z"/>
		</g>
		<path class="st1" d="M118.9,66.1L118.9,66.1l-1.1-0.1l0,0.1c-2.3,5.4-3,7-4.9,11.5c-0.3,0.7-0.4,1.2-0.7,1.7
			c-0.4,0.7-1.8,1.2-1.8,1.2V81l0.2,0c0.8-0.1,1.6-0.1,2.5-0.1c0.8,0,1.7,0,2.5,0.1l0.2,0v-0.6l-1.9-0.7c0.6-1.6,1-2.6,1.4-3.5
			l2.4,0l2.7,0c0.4,0.8,0.8,2,1.2,3.5c-0.6,0.3-1.3,0.5-2,0.6l-0.1,0V81l0.2,0c1-0.1,2-0.1,3.1-0.1c1.1,0,2.2,0,3.4,0.1l0.2,0v-0.6
			c0,0-1.3-0.3-1.7-0.8c-0.3-0.3-0.8-1.7-0.8-1.7C120.8,70.7,119.7,68,118.9,66.1z M115.6,75.2l2.2-5.5l2.1,5.5L115.6,75.2z"/>
	</g>
	<g>
		<g>
			<path class="st1" d="M176.3,54.2c-0.6-0.6-1.4-1-2.2-1.3c0.7,1.2,1.5,2.3,2.5,3.2C176.7,55.2,176.6,54.5,176.3,54.2z M164.6,52.4
				c2-1,4.3-1.6,6.5-1.6c-1.1-2.4-1.4-4.2-1.4-4.2s-2.6-0.6-2.8-1.2c0,0,0.1-2.2,2.8-4.2h-13.4v18.8
				C157.2,57.5,159.6,54.8,164.6,52.4z M195.9,56.9c-1.4-1-3.8-1.3-7-0.8c2.8-1.2,5.1-1.7,7-1.6V41.1h-22.8
				c-1.3,0.7-2.6,1.8-3.6,3.4c-0.1,0.1,2,1.1,2,1.1c0,0,0.4,2.5,1.6,5.3c1.9,0.3,3.6,1.2,4.7,2.7c0.3,0.4,0.6,1.7,0.3,3.6
				c0.1,0.1,0.2,0.2,0.4,0.2c2.4-0.7,4.2-3.3,4.2-3.3c0,0-0.2,3.1-4.1,4.7c-0.3-0.1-0.5-0.3-0.8-0.5c-0.8,2.7-2.9,6.2-7.5,9.9
				c-3.4-1.1-4-3.1-4-3.1c1.5,1.8,4,1.7,4,1.7c3.7-2.8,5.6-6.7,6.2-9.4c-1.9-1.5-3.3-3.3-4.3-5c-2-0.1-4.4,0.5-6.7,1.5
				c-11.5,5.1-7.8,12.7-6.6,14.6c1.1-0.6,2.3-1.2,3.7-1.8c-3,1.8-4.9,3.5-6,5.1v9h27.5c5.9-5.7,9.9-10.9,12-15V56.9z M176.6,42.5
				c5.4-2,9,0.8,9,0.8s-3.1-0.6-6,0.1L176.6,42.5z M162,65.1c0,0-5-5.3,7.7-8.7C160.7,60.8,162,65.1,162,65.1z M165,60
				c0,0,1.9,5.8-2.9,8.8C162.2,68.8,164.4,65,165,60z M165.4,80.9h-3.3c0,0,4.1-6.9,11.4-8C173.6,72.9,168.2,74.8,165.4,80.9z
				 M175.2,64.8c2.6-2.3,5.7-1.7,6.7-0.4c1.4,1.9,0.5,4-1.2,5.6c0,0,2.1-2.3,0.5-4.6c-0.7-0.9-2.9-1.4-4.9,0.2
				c-1.9,1.6-3.1,5.2,0.5,6.5C172.5,72.4,171.8,67.7,175.2,64.8z M178.6,80.9l-3.1,0c10.7-5.5,6.3-11.4,6.3-11.4
				S188.1,75.2,178.6,80.9z M182,46.1l-2.8-1.1c5.2-0.7,6.3,1,6.3,1S184.5,45.7,182,46.1z M184.5,52.4c-0.9-2.4,0.5-4.5,0.5-4.5
				c0.4,4.3,3.3,8.4,3.3,8.4S185.4,54.7,184.5,52.4z M186,81h9.9v-9.7C193.4,74.3,190.2,77.6,186,81z M156.3,65v5.2
				c0.7-0.5,1.4-0.9,2.3-1.4C158,68.1,157,66.7,156.3,65z M156.3,72v-1.8c-8.9,6.3,0,10.8,0,10.8S152.8,77,156.3,72z M176.4,87.6
				c3.6-2.2,6.8-4.5,9.5-6.7h-2.1C181.6,83.1,179.2,85.3,176.4,87.6z M184.4,41.1c0,0-4.6-4.3-11.3-1.8c-1.4,0.5-2.6,1.2-3.4,1.8
				h3.4C178.1,38.4,184.4,41.1,184.4,41.1z M195.9,54.4v2.4c2.3,1.5,2.2,4.7,0,9.1v5.3C203.4,61.8,202.6,54.6,195.9,54.4z M156.3,65
				v-5.1C155.7,61.8,155.8,63.5,156.3,65z"/>
		</g>
	</g>
	<path class="st1" d="M54,58.3c-0.1,0-2.4,0-2.6,0c0-0.7,0-1.1,0-1.3v-1.3h1.1c0.2,0,0.3,0,0.5,0c0.2,0,0.5,0,0.6,0
		c0.3,0,0.6,0.2,0.7,1l0,0h0.2l0-0.1c0-0.5,0-0.9,0-1.3c0-0.4,0-0.8,0-1.3l0-0.1h-0.2l0,0c-0.1,0.7-0.4,0.9-0.7,0.9
		c-0.1,0-0.4,0-0.6,0c-0.2,0-0.4,0-0.5,0h-1.1v-1.1c0-0.2,0-0.5,0.1-1.1l1.5,0c0.1,0,0.3,0,0.5,0c0.2,0,0.4,0,0.4,0
		c0.3,0,0.7,0.1,0.8,1l0,0h0.2l0-0.1c0-0.1,0-0.3,0-0.4c0-0.4,0-0.8,0-1.2l0-0.1l-0.1,0c-1,0-1.9,0.1-2.9,0.1s-1.9,0-2.8-0.1l-0.1,0
		v0.2c0,0,1.2,0.2,1.2,0.6c0,0.1,0,0.5,0,1c0,0,0.1,2.2,0,3.6c0,0.5,0,1-0.1,1.2c-0.2,0.4-1.1,0.5-1.1,0.5v0.3l0.1,0
		c1.1-0.1,2.3-0.1,3.2-0.1c0.9,0,1.8,0,2.6,0.1l0.1,0v-0.1c0-0.6,0-1.2,0.1-1.8l0-0.1h-0.2C54.8,57.2,54.6,58.3,54,58.3z M62.5,55.7
		c-0.5,0-1.1,0-1.7,0l-0.1,0v0.2c0,0,1.2,0.1,1.2,0.7v1.3l0,0.4c-0.3,0.1-0.6,0.2-1,0.2c-0.9,0-1.6-0.3-2-0.7
		c-0.5-0.6-0.7-1.4-0.7-2.2c0-0.8,0.2-1.6,0.7-2.1c0.5-0.6,1.2-0.8,2.1-0.8c0.6,0,0.9,0.1,1.1,0.3c0.2,0.2,0.5,1.1,0.5,1.1h0.2
		l0-0.1c0-0.3,0-0.6,0-0.9c0-0.3,0-0.6,0-0.9l0-0.1l-0.1,0c-0.5-0.1-1-0.2-1.6-0.2c-1.2,0-2.3,0.4-3,1c-0.9,0.8-1.3,1.7-1.3,2.8
		c0,1.1,0.4,2,1.2,2.7c0.8,0.6,1.7,0.9,2.9,0.9c0.7,0,1.5-0.1,2.1-0.3l0.1,0l0-0.1c0-0.3,0-1.1,0-2.3c0-0.6,0.9-0.7,0.9-0.7v-0.2
		l-0.1,0C63.3,55.7,63,55.7,62.5,55.7z M46.8,56c-0.4-0.5-1.6-1-2.1-1.2c-0.6-0.3-0.8-0.7-0.8-1.1c0-0.3,0.2-0.9,0.8-1.1
		c0.1,0,1-0.2,1.4,0.1c0.4,0.3,0.4,1.1,0.4,1.1l0.2,0l0.1-1.6c0,0-0.7-0.4-1.7-0.4c-0.7,0-1.2,0.2-1.7,0.5c-0.5,0.4-1,1-0.7,2.1
		c0.3,0.8,1.7,1.6,2.2,1.8c1.3,0.6,0.9,1.6,0.9,1.6c-0.1,0.4-0.5,0.7-1,0.8c-0.3,0.1-1.5,0.1-1.6-0.2C43.1,58.1,43,57,43,57L42.7,57
		l-0.2,1.9c0,0,0.6,0.3,1.7,0.3c0.8,0,1.4-0.2,2-0.5c0.6-0.4,1-0.9,1-1.7C47.2,56.4,46.8,56,46.8,56z M87.1,51.7
		c-1.1,0-2,0.4-2.7,1.1c-0.7,0.7-1,1.6-1,2.8c0,1,0.3,1.9,1,2.6c0.7,0.7,1.5,1.1,2.5,1.1h0c1.1,0,2-0.4,2.6-1.2
		c0.6-0.7,0.9-1.7,0.9-2.8c0-1-0.3-1.9-0.9-2.5C89,52.1,88.1,51.7,87.1,51.7z M89.1,55.8c0,0.8-0.2,1.4-0.5,1.9
		c-0.4,0.6-0.9,0.9-1.6,0.9c-0.8,0-1.4-0.4-1.8-1.2c-0.3-0.6-0.4-1.4-0.4-2.4c0-0.7,0.2-1.4,0.5-1.8c0.4-0.6,0.9-0.8,1.6-0.8
		C88.4,52.4,89.1,53.5,89.1,55.8L89.1,55.8z M71.7,51.9c-0.5,0-1,0-1.4-0.1l-0.1,0v0.2c0,0,0.9,0.1,1,0.5c0.1,0.5,0.1,1.1,0.1,1.8
		c0,0.2,0,2.8-0.4,3.4c-0.3,0.4-0.7,0.6-1.3,0.6c-0.8,0-1.2-0.2-1.5-0.6c-0.7-0.9-0.4-4.7-0.4-5c0-0.5,1.2-0.7,1.2-0.7v-0.3l-0.1,0
		c-0.6,0-1.2,0.1-1.8,0.1c-0.6,0-1.2,0-1.7-0.1l-0.1,0v0.3c0,0,1.2,0.2,1.2,0.9c0,0.2-0.2,2.3-0.2,3.1c0,1,0.2,1.7,0.5,2.2
		c0.5,0.7,1.5,1,2.6,1c1.1,0,2-0.4,2.4-1.2c0.3-0.6,0.4-1.4,0.4-2.5c0-0.1,0-0.1,0-0.2c0-0.8,0-1.5,0-1.9c0-0.4,0-0.7,0-0.8
		c0-0.5,0.9-0.6,0.9-0.6v-0.2l-0.1,0C72.7,51.9,72.2,51.9,71.7,51.9z M78,55.1l-0.7,0v-2.5l1,0h0c1,0,1.5,0.4,1.5,1.3
		c0,0.5-0.2,0.8-0.5,1C79,55,78.6,55.1,78,55.1z M80.5,57.4c-0.4-0.6-0.7-1.2-1.1-1.8c1.2-0.2,1.7-0.9,1.7-1.9
		c0-0.6-0.3-1.1-0.8-1.4c-0.4-0.3-1-0.4-1.6-0.4c-0.3,0-0.7,0-1.2,0c-0.5,0-1,0-1.3,0c-0.4,0-0.8,0-1.2-0.1l-0.1,0v0.3
		c0,0,1.1,0.1,1.2,0.6c0,0.1,0,0.4,0,0.9v4c0,0.4,0,0.7-0.1,0.8c-0.1,0.3-1,0.5-1,0.5l0,0.3l0.1,0c0.6,0,1.1-0.1,1.7-0.1
		s1.1,0,1.6,0.1l0.1,0v-0.2c0,0-0.8-0.2-1-0.4c-0.1-0.1-0.2-0.2-0.2-0.5c0-0.1,0-0.3,0-0.5c0-0.2,0-0.4,0-0.6v-1.1h0.7
		c0.9,1.2,1.5,2.2,2.2,3.4l0,0l0,0c0.3,0,0.6,0,0.9,0c0.3,0,0.6,0,0.9,0l0.1,0v-0.3l-0.1,0C81.7,58.8,81.1,58.3,80.5,57.4z M96.4,56
		L96.4,56L96.4,56C96.4,56,96.4,56,96.4,56L96.4,56c-0.3-0.3-0.5-0.5-0.7-0.6c-0.5-0.2-0.8-0.4-1.3-0.7c-0.6-0.3-0.8-0.7-0.8-1.1
		c0-0.3,0.1-0.6,0.4-0.8c0,0,0.1-0.1,0.1-0.1c0,0,0,0,0,0c0.1-0.1,0.2-0.1,0.3-0.1c0.1,0,0.3-0.1,0.5-0.1c0.1,0,0.3,0,0.4,0
		c0.1,0,0.3,0,0.4,0.1l0.4,1.2l0.2,0l0.1-1.6l0,0c-0.5-0.2-1.1-0.4-1.7-0.4c-0.7,0-1.2,0.2-1.7,0.5c-0.5,0.4-0.8,0.9-0.8,1.6
		c0,0.2,0,0.4,0.1,0.6c0.2,0.6,0.7,0.9,0.9,1c0,0,0.1,0,0.1,0.1v0l0,0c0.4,0.2,0.8,0.5,1.2,0.7c0.6,0.3,0.9,0.7,0.9,1.1
		c0,0.1,0,0.3,0,0.4l0,0c-0.2,0.7-1,0.8-1,0.8c-0.2,0-0.4,0-0.5,0c-0.6,0-1.1-0.2-1.1-0.3L92.6,57L92.4,57l0,0l-0.2,1.9l0.1,0
		c0.5,0.2,1.1,0.3,1.7,0.3c0.8,0,1.4-0.2,2-0.5c0.6-0.4,1-0.9,1-1.7C96.8,56.7,96.7,56.3,96.4,56z"/>
</g>
</svg>
