<?xml version="1.0" encoding="utf-8"?>
<!-- Generator: Adobe Illustrator 22.1.0, SVG Export Plug-In . SVG Version: 6.00 Build 0)  -->
<svg version="1.1" id="Capa_1" xmlns="http://www.w3.org/2000/svg" xmlns:xlink="http://www.w3.org/1999/xlink" x="0px" y="0px"
	 viewBox="0 0 120 120" style="enable-background:new 0 0 120 120;" xml:space="preserve">
<style type="text/css">
	.st0{fill:#FFDC5D;}
	.st1{fill:#016D38;}
</style>
<g>
	<circle class="st0" cx="60" cy="60" r="60"/>
</g>
<path class="st1" d="M86.1,71.7c-0.5-0.5-1.3-0.9-2.3-1.4c-0.4-0.2-0.8-0.4-1.2-0.6c-2.6-1.3-5.9-3-8.2-4.1C73.1,65,72,64.5,71.1,64
	c-0.1-0.2-0.3-0.3-0.5-0.4c2.2-2.2,3.8-5.1,4.7-8.3c2.1-0.5,3.7-2.1,3.7-4c0-1.6-0.9-3.1-2.3-3.9c1.9-6.8,1.5-12.1-1.5-15.6
	C71,26.8,63.1,27,60.5,27c-0.5,0-0.7,0-1.2,0c-2.8-0.1-10.4-0.3-14.5,4.6c-2.9,3.5-3.3,8.8-1.3,15.7c-1.5,0.7-2.6,2.2-2.6,4
	c0,1.9,1.4,3.5,3.4,4c0.9,3.3,2.6,6.2,4.8,8.4c-0.1,0.1-0.2,0.2-0.3,0.3c-0.9,0.4-2,1-3.2,1.6c-2.3,1.1-5.6,2.8-8.2,4.1
	c-0.4,0.2-0.8,0.4-1.2,0.6c-1,0.5-1.8,0.9-2.3,1.4C31,74.4,30.9,85,30.9,87.1v4.7c0,0.7,0.6,1.2,1.3,1.2s1.3-0.5,1.3-1.2v-4.7
	c0-4.8,0.7-12.3,2.3-13.8c0.2-0.2,0.8-0.5,1.5-0.8v2.8c0,0.7,0.6,1.2,1.3,1.2s1.3-0.5,1.3-1.2v-4.1c1.1-0.6,2.3-1.2,3.5-1.8
	c-0.6,2.7-1,6.3-1,9.5c-3.6,0.6-6.3,3.5-6.3,7v5.9c0,0.7,0.6,1.2,1.3,1.2h2.5c0.7,0,1.3-0.5,1.3-1.2s-0.6-1.2-1.3-1.2h-1.3v-4.7
	c0-2.6,2.3-4.7,5.1-4.7c2.8,0,5.1,2.1,5.1,4.7v4.7h-1.3c-0.7,0-1.3,0.5-1.3,1.2s0.6,1.2,1.3,1.2h2.5c0.7,0,1.3-0.5,1.3-1.2v-5.9
	c0-3.5-2.7-6.4-6.3-7c0-2.6,0.3-5.4,0.7-7.7c1.9,6.1,7.1,10.6,7.3,10.8c0.5,0.4,1.2,0.4,1.7,0.1l0.9-0.7l0.8,2.2l-1.2,8
	c-0.1,0.6,0.4,1.2,1.1,1.3c0.1,0,0.1,0,0.2,0c0.6,0,1.2-0.4,1.3-1l1.1-7.2h2.9l1.1,7.2c0.1,0.6,0.6,1,1.3,1c0.1,0,0.1,0,0.2,0
	c0.7-0.1,1.2-0.7,1.1-1.3l-1.2-8l0.8-2.2l0.9,0.7c0.2,0.2,0.5,0.3,0.8,0.3c0.3,0,0.6-0.1,0.9-0.3c0.3-0.2,5.6-4.9,7.4-11
	c0.9,4.5,1,10.4-0.4,15c-1.6,0.4-2.8,1.8-2.8,3.4c0,1.9,1.7,3.5,3.8,3.5s3.8-1.6,3.8-3.5c0-1.4-0.9-2.6-2.2-3.2
	c1.5-5.5,1.1-12.1,0.1-16.7c1.2,0.6,2.3,1.2,3.4,1.7v4.1c0,0.7,0.6,1.2,1.3,1.2s1.3-0.5,1.3-1.2v-2.8c0.6,0.3,1.2,0.6,1.5,0.8
	c1.6,1.5,2.3,9,2.3,13.8v4.7c0,0.7,0.6,1.2,1.3,1.2c0.7,0,1.3-0.5,1.3-1.2v-4.7C89.1,85,89,74.4,86.1,71.7z M60,75.3
	c-5-1.6-7.5-7.1-8.5-9.6c0.4,0.3,0.9,0.6,1.3,0.8c2.3,1.2,4.4,1.7,7.2,1.7c2.4,0,4.7-0.6,6.8-1.7c0.6-0.3,1.1-0.7,1.7-1.1
	c0,0,0,0,0,0C67.7,67.8,65.2,73.6,60,75.3z M46.9,33.1c3.3-4,9.9-3.8,12.4-3.7c0.5,0,0.8,0,1.3,0c2.5-0.1,9.2-0.2,12.7,3.9
	c2.3,2.8,2.7,7,1.3,12.7c-0.6-0.9-1-2-1.3-3.1c-0.7-2.3-1.6-5.3-5.6-5.3c-1.5,0-2.5,0.3-3.5,0.6c-1,0.3-2.1,0.6-4.1,0.6
	c-0.5,0-1.4-0.4-2.3-0.8c-1.5-0.7-3.3-1.5-5.3-1.5c-4,0-4.9,3.3-5.6,5.9c-0.3,1.1-0.6,2.2-1.1,3.1C44.3,39.9,44.7,35.8,46.9,33.1z
	 M43.5,51.4c0-0.8,0.5-1.6,1.2-1.9l2.1,1c0.6,0.3,1.4,0.1,1.7-0.5c0.3-0.6,0.1-1.3-0.6-1.6l-0.8-0.4c1.2-1.4,1.7-3.3,2.2-5
	c0.8-2.9,1.3-4.1,3.1-4.1c1.4,0,2.9,0.7,4.2,1.3c1.3,0.6,2.4,1.1,3.4,1.1c2.4,0,3.7-0.4,4.9-0.7c0.9-0.3,1.6-0.5,2.7-0.5
	c1.9,0,2.4,1,3.2,3.5c0.4,1.4,0.9,3.1,2.2,4.4l-0.8,0.4c-0.6,0.3-0.9,1-0.6,1.6c0.2,0.4,0.7,0.7,1.1,0.7c0.2,0,0.4,0,0.6-0.1l2.1-1
	c0.7,0.3,1.2,1.1,1.2,1.9c0,0.9-1.1,1.7-2.2,1.8c-0.6,0-1.1,0.4-1.2,0.9c-0.8,3.7-2.8,6.9-5.5,9.1c-0.6,0.5-1.3,1-2,1.3
	c-1.8,0.9-3.6,1.4-5.6,1.4c-2.3,0-4.1-0.4-5.9-1.4c-0.7-0.4-1.4-0.8-2-1.3c-2.7-2.2-4.6-5.4-5.5-9.1c0,0,0-0.1,0-0.1
	c0-0.1-0.1-0.1-0.1-0.2c0-0.1-0.1-0.1-0.1-0.2c-0.1-0.1-0.1-0.1-0.2-0.2c-0.1,0-0.1-0.1-0.2-0.1c-0.1,0-0.1-0.1-0.2-0.1
	c-0.1,0-0.2,0-0.2-0.1c0,0-0.1,0-0.1,0C44.4,53.1,43.5,52.3,43.5,51.4z M53.8,79.6c-1.8-1.8-6.2-6.7-6.4-12.2
	c0.6-0.3,1.2-0.6,1.8-0.9c1,2.6,3.5,7.9,8.4,10.3L53.8,79.6z M61.6,82.4h-3.2l-0.9-2.5L60,78l2.5,1.9L61.6,82.4z M66.2,79.6
	l-3.8-2.8c4.9-2.4,7.4-7.6,8.4-10.3c0.5,0.3,1.2,0.6,1.8,0.9C72.5,72.9,68,77.8,66.2,79.6z M75.2,90.6c-0.7,0-1.3-0.5-1.3-1.2
	s0.6-1.2,1.3-1.2s1.3,0.5,1.3,1.2S75.9,90.6,75.2,90.6z"/>
</svg>
