<?xml version="1.0" encoding="utf-8"?>
<!-- Generator: Adobe Illustrator 23.0.2, SVG Export Plug-In . SVG Version: 6.00 Build 0)  -->
<svg version="1.1" xmlns="http://www.w3.org/2000/svg" xmlns:xlink="http://www.w3.org/1999/xlink" x="0px" y="0px"
	 viewBox="0 0 612 189.9" style="enable-background:new 0 0 612 189.9;" xml:space="preserve">
<style type="text/css">
	.st0{fill:#0E6838;}
	.st1{fill-rule:evenodd;clip-rule:evenodd;fill:#F1D363;}
	.st2{fill:none;}
	.st3{fill-rule:evenodd;clip-rule:evenodd;fill:#0E6838;}
</style>
<g id="Primer_plano">
	<g>
		<g>
			<g>
				<path class="st0" d="M375.4,152.1c-2.9-0.5-6.4-3.8-10.5-10c-2.5-4-4.9-8.1-7.4-12.2c7.7-1.4,11.4-5.7,11.3-12.5
					c0-4.1-1.9-7.3-5.5-9.4c-2.9-1.7-6.5-2.5-10.9-2.5c-1.8,0-4.4,0.1-7.8,0.2c-7.8,0.3-14.1,0-16.4-0.2l-0.5-0.1v1.5
					c0,0,7.9,1.3,7.9,3.9c0.1,0.5,0.1,2.8,0.1,6.2v27.1c0,2.5-0.2,4.1-0.5,4.9c-0.6,1.8-6.4,3.1-6.4,3.1l-0.3,1.8l0.6,0
					c3.9-0.3,7.7-0.5,11.3-0.5c3.7,0,7.3,0.2,10.7,0.5l0.5,0v-1.7c0,0-5.6-1.8-7.2-2.8c-0.8-0.5-0.9-1.9-0.9-3.9
					c0-0.4,0-1.6,0.1-3.1c0.1-1.5,0.1-2.8,0.1-4V131l4.9,0c5.8,7.8,10.2,15,14.8,22.7l0.1,0.3c0,0,4.1-0.2,6.1-0.2
					c2,0,4.1,0.1,5.8,0.2l0.5,0l0-1.9L375.4,152.1z M348.3,126.7h-4.7v-16.9c0,0,6.7-0.1,6.8-0.1c6.9,0.1,10,2.7,10.1,8.5
					c0,3.5-1.2,5.7-3.6,7C355,126.2,352.1,126.7,348.3,126.7z"/>
				<path class="st0" d="M74.7,131.4c-2.1-1.3-4.3-2.2-7.2-2.7c2.1-0.5,3.8-1.3,5.6-2.5c3.2-2,4.7-5.5,4.8-8.3
					c0-4.3-1.8-7.6-5.2-9.9c-2.9-2-6.6-2.7-11-2.7c-0.1,0-3.9,0.1-11.7,0.2c-1.3,0-2.6,0-3.8,0c-4.7,0-8.4-0.3-8.4-0.3v1.7
					c0,0,7.2,1,7.9,4.4c0.1,0.5,0.3,35.5-0.3,36.7c-1.4,3-7.6,4-7.6,4v1.8c0,0,4.6-0.4,9.6-0.4c1.2,0,2.4,0,3.6,0
					c8.5,0.2,12.7,0.3,12.8,0.3c4.4,0,8.1-1,11.1-3.1c3.4-2.3,5.2-5.7,5.2-10C80.1,136.8,78.3,133.6,74.7,131.4z M53.1,117.2
					c0-2.3,0-4.5,0.2-7.6c1.5-0.1,3.5-0.1,5.8-0.1c7.2,0.1,10.4,2.4,10.5,8.5c0,5.7-3.5,8.1-11.3,8.2h-5.1L53.1,117.2z M58.8,149.9
					L58.8,149.9C58.8,149.9,58.8,150,58.8,149.9C58.8,150,58.8,149.9,58.8,149.9z M58.4,149.6C58.3,149.6,58.3,149.6,58.4,149.6
					c-0.1,0-0.1,0-0.2,0c0,0,0,0,0,0h0c-0.2,0-1.9-0.1-5-0.2c-0.1-1.5-0.1-2.8-0.1-4.2v-13.9h4.6c9.5,0.1,13.8,3.2,13.8,9.8
					C71.6,147.4,67.5,149.5,58.4,149.6z"/>
				<path class="st0" d="M117.6,104.6c-7.4,0-13.4,2.4-17.9,7.2c-4.4,4.7-6.6,10.9-6.6,18.4c0,7,2.1,12.9,6.4,17.5
					c4.3,4.8,10,7.2,16.9,7.2h0c7.3,0,13.3-2.7,17.6-8c4.1-5,6.1-11.2,6.1-18.7h0c0-6.8-2-12.5-6.1-16.8
					C130,106.8,124.4,104.6,117.6,104.6z M131.2,131.5c0,5.3-1,9.6-3.1,13c-2.5,4-6,6-10.9,6c-5.5,0-9.4-2.7-12-8.2
					c-1.9-4.1-2.9-9.3-2.9-15.7c0-5,1.2-9.1,3.6-12.3c2.7-3.7,6.3-5.5,11-5.5C126.4,108.9,131.1,116.2,131.2,131.5L131.2,131.5z"/>
				<g>
					<path class="st0" d="M179.5,148.7h-13.8V118c0-3.7,0.1-5.6,0.1-6.6c0.2-3.1,8.4-4.4,8.4-4.4v-1.6c0,0-8.4,0.5-12.3,0.5
						c-3.9,0-11.9-0.5-11.9-0.5v1.6c0,0,7.9,1.3,7.9,4.3c0.1,0.5,0.1,2.7,0.1,6.1v26c0,2.6,0.1,3.8-0.5,5c-1.5,2.9-7.5,3.7-7.5,3.7
						v1.9l0.5,0c5-0.3,10.7-0.4,16.9-0.4c6.2,0,12.9,0.1,20,0.4l0.5,0l0.6-12.9h-2C186.7,141.1,185.6,149,179.5,148.7z"/>
				</g>
				<g>
					<path class="st0" d="M221.1,92.6L221.1,92.6c0-2.2-1.9-3.6-3.7-3.6c-1.3,0-2.5,0.8-3.5,1.8l-10.1,11.7h3.8l11.5-6.6
						C220.4,95,221.1,93.9,221.1,92.6L221.1,92.6z"/>
					<path class="st0" d="M209.4,106.1c-2.8,0-6.5-0.2-11.2-0.6l-0.5,0v1.6c0,0,6.5,1.5,7.4,4.9c0.4,1.7,0.2,4.5,0.3,7.5
						c0,0,0.2,11.2,0.1,17.2c-0.1,8.1-0.4,11.7-2.4,13.4c-1.8,1.5-5.4,2-5.4,2v2l0.5,0c4.4-0.4,8.1-0.6,11.2-0.6
						c2.7,0,6.3,0.2,10.9,0.6l0.5,0v-2c0,0-3.6-0.6-5.5-2c-1.4-1-2.4-5.2-2.3-13.4c0-1.1,0.1-16.6,0.1-17.2c0.1-3.1,0.1-5.9,0.2-7.6
						c0.4-3.9,7.4-4.8,7.4-4.8v-1.6l-0.5,0C215.5,105.9,211.8,106.1,209.4,106.1z"/>
				</g>
				<g>
					<path class="st0" d="M275.6,107.1l0.4-0.1v-1.6l-0.5,0.1c-2.2,0.3-4.5,0.4-7,0.4c-2.5,0-5.1-0.1-7.9-0.4l-0.5-0.1v1.6l0.3,0.1
						c2,0.6,4.7,1.5,4.6,2.4c-0.8,4.4-8.7,24.5-10.8,29.5c-1.6-3.6-11.7-28.6-11.7-29.2c0,0-0.6-1.4,5.4-2.7l0.4-0.1v-1.6
						c0,0-6.8,0.5-10,0.5c-8.1,0-10.4-0.5-10.4-0.5v1.6c0,0,4.8,1.2,6.1,4.3c5,11.3,10.8,25.9,16.9,43.2l0.1,0.3h2.4l0.1-0.3
						c4.5-12.5,14.2-37.4,17.1-43.4C271.5,109.1,273.2,107.7,275.6,107.1z"/>
				</g>
				<path class="st0" d="M299.9,104.2l-0.1-0.3h-3.5l-0.1,0.3c-7.5,17.9-10,23.3-16.4,38.3c-1,2.2-1.5,3.9-2.5,5.8
					c-1.3,2.4-6,3.9-6,3.9v1.9l0.5-0.1c2.7-0.3,5.5-0.4,8.3-0.4c2.8,0,5.6,0.1,8.4,0.4l0.5,0.1v-1.9l-6.2-2.3
					c2.1-5.3,3.4-8.8,4.6-11.7l8.1,0.1l9,0.1c1.3,2.8,2.5,6.8,4,11.6c-2.1,0.8-4.4,1.5-6.7,2.1l-0.4,0.1v2l0.5,0
					c3.3-0.3,6.7-0.4,10.4-0.4c3.6,0,7.4,0.1,11.3,0.4l0.5,0v-1.9c0,0-4.2-1.1-5.6-2.6c-1.1-1.1-2.6-5.6-2.6-5.6
					C306,119.7,302.3,110.6,299.9,104.2z M288.9,134.7l7.3-18.4l6.9,18.4L288.9,134.7z"/>
			</g>
			<g>
				<rect x="424.4" y="21.1" class="st1" width="131.5" height="132.6"/>
				<path class="st2" d="M446,103.9"/>
				<g>
					<path class="st3" d="M491.8,25.8c18.1-6.6,30,2.7,30,2.7S511.5,26.4,502,29L491.8,25.8z"/>
					<path class="st3" d="M500.6,34.2c17.2-2.5,21.1,3.2,21.1,3.2s-3.7-1.1-11.9,0.4L500.6,34.2z"/>
					<path class="st3" d="M487.1,100.1c8.8-7.6,18.9-5.6,22.3-1.2c4.8,6.4,1.6,13.4-4.1,18.5c0,0,7.1-7.8,1.6-15.3
						c-2.3-3.2-9.7-4.8-16.2,0.6c-6.5,5.4-10.3,17.2,1.6,21.8C478.2,125.2,475.9,109.8,487.1,100.1z"/>
					<path class="st3" d="M532.5,71c59.2-25.1,62.5,40.4-41.2,105C566.2,112.9,583.3,63.3,532.5,71z"/>
					<path class="st3" d="M444.6,106.7c-60.6,26.7-20.1,47-20.1,47S403.8,130.6,444.6,106.7z"/>
					<path class="st3" d="M498.4,153.7c31.8-19,10.6-37.9,10.6-37.9s14.4,19.5-21.1,37.9L498.4,153.7z"/>
					<path class="st3" d="M443.8,113.3c0,0,7.4-12.8,9.6-29.3C453.4,84,459.6,103.5,443.8,113.3z"/>
					<path class="st3" d="M433.2,114.3c0,0-32.9-30.5,18.7-55.7c14.8-7.3,35-8.1,44,4.3c2.7,3.7,4.7,25-25.3,48.9
						c-11.4-3.7-13.5-10.4-13.5-10.4c5,5.9,13.2,5.8,13.2,5.8C490,92,494.5,68.3,490.9,64.8c-8.1-7.9-22.2-7-36.5-0.6
						C410.5,83.9,433.2,114.3,433.2,114.3z"/>
					<path class="st3" d="M454.7,153.7h-10.8c0,0,13.5-22.9,38.1-26.7C482,127,463.8,133.3,454.7,153.7z"/>
					<path class="st3" d="M459.6,35.2c0,0,0.7-12.8,20.6-20.2c22.1-8.2,37.4,6.1,37.4,6.1s-33-14.3-49.4,11.3
						c-0.3,0.5,6.7,3.7,6.7,3.7c0,0,4.3,28.9,23,39.5c8.1-2.4,14-10.9,14-10.9c0,0-0.7,10.2-13.6,15.7
						c-24.1-12.2-29.5-41.3-29.5-41.3S460.1,37.3,459.6,35.2z"/>
					<path class="st3" d="M468.8,72.1c-42.1,11.1-25.6,28.8-25.6,28.8S439,86.8,468.8,72.1z"/>
					<path class="st3" d="M519.7,43.6c0,0-4.6,6.9-1.5,15c3,7.8,12.6,13.1,12.6,13.1S521.1,58,519.7,43.6z"/>
				</g>
			</g>
			<path class="st0" d="M83.7,78.3c-0.2,0-8.1-0.1-8.5-0.1c-0.1-2.5-0.1-3.7-0.1-4.3v-4.3h3.6c0.5,0,1.1,0,1.8,0c0.7,0,1.7,0,1.9,0
				c0.9,0,1.9,0.7,2.5,3.3l0.1,0.2h0.6l0-0.2c0-1.5-0.1-3-0.1-4.4c0-1.4,0-2.8,0.1-4.2l0-0.2h-0.6l-0.1,0.2
				c-0.4,2.3-1.4,3.1-2.3,3.1c-0.2,0-1.4,0-2.1,0c-0.7,0-1.3,0-1.8,0h-3.6v-3.8c0-0.6,0.1-1.8,0.2-3.8l4.9-0.1c0.4,0,1,0,1.6,0
				c0.6,0,1.3,0,1.5,0c0.9,0,2.3,0.3,2.7,3.3l0.1,0.2h0.6l0-0.3c0-0.5,0-1,0-1.5c0-1.3,0.1-2.6,0.1-3.9l0-0.3l-0.3,0
				c-3.2,0.1-6.5,0.2-9.7,0.2c-3.2,0-6.4-0.1-9.4-0.2l-0.2,0v0.8c0,0,3.9,0.6,3.9,1.9c0,0.2,0.1,1.5,0.1,3.2c0,0,0.2,7.2,0,11.9
				c-0.1,1.5,0.1,3.4-0.2,3.9c-0.8,1.4-3.7,1.6-3.7,1.6v0.8l0.3,0c3.7-0.2,7.5-0.3,10.6-0.3c3.1,0,6,0.1,8.7,0.3l0.3,0v-0.3
				c0-1.9,0-4,0.2-6.1l0-0.3h-0.6C86.5,74.5,86,78.3,83.7,78.3z M112,69.8c-1.7,0-3.8-0.1-5.5-0.1l-0.2,0v0.7c0,0,3.8,0.5,3.8,2.4
				V77l0,1.2c-1,0.4-1.9,0.6-3.2,0.6c-3,0.1-5.3-0.8-6.6-2.4c-1.6-2.1-2.3-4.6-2.4-7.3c-0.1-2.8,0.7-5.2,2.2-7.1
				c1.5-1.9,4-2.8,7.1-2.8c2.1,0,2.9,0.3,3.5,0.9c0.7,0.7,1.6,3.5,1.6,3.5h0.7l0-0.3c-0.1-1.1-0.1-2.1-0.1-3.1c0-1,0-2,0.1-2.9
				l0-0.2l-0.2,0c-1.6-0.3-3.4-0.5-5.2-0.5c-3.9,0-7.6,1.3-10.1,3.5c-2.9,2.5-4.5,5.7-4.5,9.5c0,3.8,1.4,6.8,4.1,9
				c2.5,2,5.6,3.1,9.5,3.1c2.4,0,5-0.4,7.1-1l0.2-0.1l0-0.2c-0.1-0.9-0.1-3.7-0.1-7.6c0-2.1,2.9-2.4,2.9-2.4v-0.7l-0.2,0
				C115,69.7,113.7,69.8,112,69.8z M60,70.7c-1.5-1.6-5.4-3.3-7-4.1c-1.9-1-2.8-2.3-2.8-3.8c0-1.1,0.7-3,2.8-3.6
				c0.5-0.1,3.2-0.8,4.7,0.4c1.2,0.9,1.3,3.7,1.3,3.7l0.6,0l0.2-5.4c0,0-2.5-1.3-5.6-1.3c-2.2,0-4.1,0.6-5.6,1.7
				c-1.8,1.3-3.4,3.3-2.3,6.8c0.9,2.8,5.8,5.3,7.4,6.1c4.2,2.1,3.1,5.2,3.1,5.2c-0.4,1.3-1.7,2.2-3.2,2.6c-1,0.3-4.9,0.2-5.5-0.7
				c-0.4-0.6-0.8-4.4-0.8-4.4l-0.9,0.2l-0.7,6.4c0,0,2.1,1,5.7,1.1c2.6,0.1,4.8-0.5,6.5-1.5c2.2-1.2,3.4-3.1,3.3-5.6
				C61.1,71.9,60,70.7,60,70.7z M194.1,56.5c-3.7,0-6.7,1.2-8.9,3.6c-2.2,2.4-3.3,5.4-3.3,9.2c0,3.5,1.1,6.4,3.2,8.7
				c2.2,2.4,5,3.6,8.5,3.6h0c3.7,0,6.6-1.3,8.8-4c2-2.5,3.1-5.6,3.1-9.3c0-3.4-1-6.2-3-8.4C200.2,57.6,197.5,56.5,194.1,56.5z
				 M200.8,70c0,2.6-0.5,4.8-1.5,6.5c-1.2,2-3,3-5.5,3c-2.7,0-4.7-1.3-6-4.1c-1-2-1.5-4.6-1.5-7.8c0-2.5,0.6-4.5,1.8-6.1
				c1.3-1.8,3.1-2.7,5.5-2.7C198.4,58.7,200.8,62.3,200.8,70L200.8,70z M142.8,57.2c-1.6,0-3.2-0.1-4.8-0.2l-0.3,0v0.8
				c0,0,3,0.5,3.4,1.8c0.3,1.5,0.5,3.6,0.5,6c0,0.8,0,9.4-1.4,11.3c-1,1.2-2.5,2-4.4,2c-2.6,0-4.1-0.7-5.1-1.9
				c-2.4-3-1.2-15.7-1.2-16.6c0-1.8,3.9-2.5,3.9-2.5V57l-0.3,0c-1.9,0.1-3.9,0.2-5.8,0.2c-2,0-3.9-0.1-5.6-0.2l-0.3,0v0.9
				c0,0,4.1,0.8,4.1,2.8c0,0.7-0.6,7.6-0.6,10.4c0,3.2,0.6,5.6,1.7,7.3c1.6,2.2,4.9,3.3,8.5,3.3c3.8,0,6.6-1.3,8.1-4
				c1-1.8,1.4-4.6,1.4-8.2c0-0.2,0-0.4,0-0.5c0-2.8,0-5,0-6.5c0-1.5,0-2.4,0-2.5c0.1-1.8,3.1-2.1,3.1-2.1v-0.8l-0.3,0
				C146,57.1,144.4,57.2,142.8,57.2z M163.8,67.6h-2.4v-8.4l3.2,0h0.1c3.5,0,5,1.4,5,4.2c0,1.7-0.6,2.8-1.8,3.5
				C167.1,67.4,165.7,67.6,163.8,67.6z M172,75.3c-1.2-2-2.5-4-3.7-6.1c3.8-0.7,5.7-2.9,5.6-6.2c0-2.1-0.9-3.7-2.8-4.7
				c-1.4-0.8-3.3-1.2-5.5-1.2c-0.9,0-2.2,0-3.9,0.1c-1.7,0-3.4,0.1-4.3,0.1c-1.4,0-2.7-0.1-3.9-0.2l-0.3,0v0.9c0,0,3.6,0.3,3.9,1.9
				c0,0.2,0.1,1.2,0.1,2.9v13.4c0,1.3-0.1,2.3-0.2,2.7c-0.3,1.1-3.2,1.5-3.2,1.5l-0.2,0.8l0.3,0c1.9-0.2,3.8-0.2,5.6-0.2
				c1.8,0,3.6,0.1,5.4,0.2l0.3,0v-0.8c0,0-2.6-0.7-3.5-1.5c-0.4-0.3-0.6-0.8-0.6-1.8c0-0.2,0-1,0-1.8c0-0.8,0-1.4,0-2v-3.7h2.5
				c2.9,3.9,5.1,7.5,7.4,11.3l0.1,0.1l0.2,0c0.9-0.1,1.9-0.1,2.9-0.1c1,0,2.1,0,3,0.1l0.3,0v-0.9l-0.2,0
				C175.9,80,174.1,78.4,172,75.3z M225.1,70.8l-0.2,0.1L225.1,70.8c-0.1-0.1-0.1-0.2-0.2-0.3l0,0c-0.7-0.8-1.6-1.4-2.2-1.7
				c-1.6-0.8-2.8-1.4-4.5-2.2c-1.9-1-2.8-2.3-2.8-3.8c0-1.1,0.4-2,1.2-2.8c0.1-0.1,0.3-0.2,0.4-0.3c0,0,0,0,0.1-0.1
				c0.3-0.2,0.7-0.3,1.1-0.4c0.5-0.1,1-0.2,1.7-0.2c0.4,0,1,0,1.5,0.1c0.5,0,0.9,0.1,1.5,0.3l1.3,3.9l0.6,0l0.2-5.4l-0.1-0.1
				c-1.8-0.8-3.6-1.2-5.5-1.2c-2.2,0-4.1,0.6-5.6,1.7c-1.8,1.3-2.7,3-2.7,5.2c0,0.7,0.1,1.3,0.4,2c0.8,1.8,2.4,3,3.2,3.4
				c0.1,0.1,0.2,0.1,0.3,0.2v0L215,69c1.4,0.8,2.6,1.6,4.1,2.4c1.9,1.1,2.8,2.3,2.8,3.7c0,0.5-0.1,0.9-0.2,1.3l0,0
				c-0.7,2.3-3.3,2.5-3.3,2.5c-0.6,0.1-1.2,0.1-1.7,0.1c-2.1,0-3.5-0.8-3.6-0.9l-0.7-4.4l-0.8,0.2l-0.2,0l-0.7,6.4l0.2,0.1
				c1.8,0.7,3.6,1,5.5,1c2.6,0,4.8-0.5,6.5-1.5c2.2-1.2,3.3-3.2,3.3-5.6C226.3,73.1,225.9,71.8,225.1,70.8z"/>
		</g>
	</g>
</g>
<g id="Layer_1">
</g>
</svg>
