<?xml version="1.0" encoding="UTF-8"?>
<!-- Generator: Adobe Illustrator 17.0.0, SVG Export Plug-In . SVG Version: 6.00 Build 0)  -->
<!DOCTYPE svg PUBLIC "-//W3C//DTD SVG 1.1//EN" "http://www.w3.org/Graphics/SVG/1.1/DTD/svg11.dtd">
<svg version="1.1" id="Isolation_Mode" xmlns="http://www.w3.org/2000/svg" xmlns:xlink="http://www.w3.org/1999/xlink" x="0px" y="0px" width="79px" height="68.604px" viewBox="0 0 79 68.604" enable-background="new 0 0 79 68.604" xml:space="preserve">
<g>
	<circle fill="#FFDC5E" cx="20.663" cy="20.663" r="20.663"/>
</g>
<g>
	<circle fill="#5F6060" cx="32.959" cy="60.682" r="3.144"/>
	<path fill="#5F6060" d="M18.841,55.731h28.235V15.624H18.841V55.731z M20.718,17.501H45.2v36.354H20.718V17.501z"/>
	<path fill="#5F6060" d="M29.075,13.825h7.767c0.388,0,0.704-0.315,0.704-0.704s-0.315-0.704-0.704-0.704h-7.767   c-0.388,0-0.704,0.315-0.704,0.704S28.687,13.825,29.075,13.825z"/>
	<path fill="#5F6060" d="M53.986,18.467v-7.792c0-2.214-1.803-4.017-4.018-4.017h-34.02c-2.214,0-4.017,1.803-4.017,4.017v53.912   c0,2.214,1.803,4.017,4.017,4.017h34.02c2.215,0,4.018-1.803,4.018-4.017V24.976c0.359-0.07,0.638-0.374,0.638-0.752V19.22   C54.624,18.841,54.345,18.538,53.986,18.467z M50.607,64.587c0,0.346-0.293,0.638-0.639,0.638h-34.02   c-0.346,0-0.638-0.291-0.638-0.638V10.675c0-0.346,0.291-0.638,0.638-0.638h34.02c0.346,0,0.639,0.291,0.639,0.638V64.587z"/>
</g>
<g>
	<path fill="#028C45" d="M59.548,41.048c7.108,0,12.893-5.783,12.893-12.891s-5.785-12.893-12.893-12.893   c-0.933,0-1.689,0.757-1.689,1.689c0,0.933,0.757,1.689,1.689,1.689c5.246,0,9.514,4.268,9.514,9.514s-4.268,9.512-9.514,9.512   c-0.933,0-1.689,0.757-1.689,1.689C57.858,40.292,58.615,41.048,59.548,41.048z"/>
	<path fill="#028C45" d="M59.548,30.635c-0.933,0-1.689,0.757-1.689,1.689c0,0.933,0.757,1.689,1.689,1.689   c3.23,0,5.858-2.628,5.858-5.856c0-3.23-2.628-5.858-5.858-5.858c-0.933,0-1.689,0.757-1.689,1.689   c0,0.933,0.757,1.689,1.689,1.689c1.367,0,2.479,1.112,2.479,2.479C62.027,29.525,60.915,30.635,59.548,30.635z"/>
	<path fill="#028C45" d="M59.548,8.703c-0.933,0-1.689,0.757-1.689,1.689c0,0.933,0.757,1.689,1.689,1.689   c8.863,0,16.074,7.21,16.074,16.075c0,8.863-7.21,16.074-16.074,16.074c-0.933,0-1.689,0.757-1.689,1.689   c0,0.933,0.757,1.689,1.689,1.689C70.272,47.61,79,38.883,79,28.158C79,17.431,70.272,8.703,59.548,8.703z"/>
</g>
</svg>