<?xml version="1.0" encoding="utf-8"?>
<!-- Generator: Adobe Illustrator 22.1.0, SVG Export Plug-In . SVG Version: 6.00 Build 0)  -->
<svg version="1.1" id="Capa_1" xmlns="http://www.w3.org/2000/svg" xmlns:xlink="http://www.w3.org/1999/xlink" x="0px" y="0px"
	 viewBox="0 0 60 60" style="enable-background:new 0 0 60 60;" xml:space="preserve">
<style type="text/css">
	.st0{fill:#FFFFFF;}
	.st1{fill:#016D38;}
</style>
<g>
	<circle class="st0" cx="30" cy="30" r="30"/>
</g>
<path class="st1" d="M30,11.1c2.5,0,4.5,2.1,4.5,4.7s-2,4.7-4.5,4.7c-2.5,0-4.5-2.1-4.5-4.7S27.5,11.1,30,11.1z M30,23.6
	c1.1,0,2.2,0.5,3,1.2c0.8,0.8,1.2,1.9,1.2,3v17c0,1.1-0.4,2.2-1.2,3c-0.8,0.8-1.9,1.2-3,1.2c-1.1,0-2.2-0.5-2.9-1.3
	c-0.8-0.8-1.2-1.9-1.2-2.9v-17c0-1.1,0.4-2.2,1.2-3C27.8,24,28.9,23.6,30,23.6z"/>
</svg>
