<?xml version="1.0" encoding="utf-8"?>
<!-- Generator: Adobe Illustrator 22.1.0, SVG Export Plug-In . SVG Version: 6.00 Build 0)  -->
<svg version="1.1" id="Capa_1" xmlns="http://www.w3.org/2000/svg" xmlns:xlink="http://www.w3.org/1999/xlink" x="0px" y="0px"
	 viewBox="0 0 96 96" style="enable-background:new 0 0 96 96;" xml:space="preserve">
<style type="text/css">
	.st0{fill:#016D38;}
</style>
<path class="st0" d="M36,8C20.6,8,8,20.6,8,36s12.6,28,28,28c7,0,13.4-2.6,18.3-6.9l1.7,1.7V64l24,24l8-8L64,56h-5.2l-1.7-1.7
	C61.4,49.4,64,43,64,36C64,20.6,51.4,8,36,8z M36,16c11.1,0,20,8.9,20,20s-8.9,20-20,20s-20-8.9-20-20S24.9,16,36,16z"/>
</svg>
