<?xml version="1.0" encoding="utf-8"?>
<!-- Generator: Adobe Illustrator 22.1.0, SVG Export Plug-In . SVG Version: 6.00 Build 0)  -->
<svg version="1.1" id="Capa_1" xmlns="http://www.w3.org/2000/svg" xmlns:xlink="http://www.w3.org/1999/xlink" x="0px" y="0px"
	 viewBox="0 0 120 120" style="enable-background:new 0 0 120 120;" xml:space="preserve">
<style type="text/css">
	.st0{fill:#FFDC5D;}
	.st1{fill:#016D38;}
</style>
<g>
	<circle class="st0" cx="60" cy="60" r="60"/>
</g>
<g>
	<g>
		<path class="st1" d="M72.4,37.3h-4.1v-2.1c0-1.1-0.9-2.1-2.1-2.1h-6.4c-0.9-3.6-4.2-6.2-8-6.2c-3.8,0-7.1,2.6-8,6.2h-6.4
			c-1.1,0-2.1,0.9-2.1,2.1v2.1h-4.1c-2.3,0-4.1,1.9-4.1,4.1v47.4c0,2.3,1.9,4.1,4.1,4.1h41.3c2.3,0,4.1-1.9,4.1-4.1V41.4
			C76.5,39.2,74.6,37.3,72.4,37.3z M39.4,37.3h6.2c1.1,0,2.1-0.9,2.1-2.1c0-2.3,1.9-4.1,4.1-4.1c2.3,0,4.1,1.9,4.1,4.1
			c0,1.1,0.9,2.1,2.1,2.1h6.2v4.1H39.4V37.3z M72.4,88.9H31.1V41.4h4.1v2.1c0,1.1,0.9,2.1,2.1,2.1h28.9c1.1,0,2.1-0.9,2.1-2.1v-2.1
			h4.1V88.9z"/>
		<path class="st1" d="M64.1,51.7H47.6c-1.1,0-2.1,0.9-2.1,2.1s0.9,2.1,2.1,2.1h16.5c1.1,0,2.1-0.9,2.1-2.1S65.3,51.7,64.1,51.7z"/>
		<path class="st1" d="M64.1,60H47.6c-1.1,0-2.1,0.9-2.1,2.1s0.9,2.1,2.1,2.1h16.5c1.1,0,2.1-0.9,2.1-2.1S65.3,60,64.1,60z"/>
		<path class="st1" d="M64.1,68.3H47.6c-1.1,0-2.1,0.9-2.1,2.1s0.9,2.1,2.1,2.1h16.5c1.1,0,2.1-0.9,2.1-2.1S65.3,68.3,64.1,68.3z"/>
		<path class="st1" d="M64.1,76.5H47.6c-1.1,0-2.1,0.9-2.1,2.1s0.9,2.1,2.1,2.1h16.5c1.1,0,2.1-0.9,2.1-2.1S65.3,76.5,64.1,76.5z"/>
		<path class="st1" d="M90.9,45.6v-4.1c0-1.1-0.9-2.1-2.1-2.1h-4.1c-1.1,0-2.1,0.9-2.1,2.1v4.1c-1.1,0-2.1,0.9-2.1,2.1v33
			c0,1.1,0.9,2.1,2.1,2.1v2.1c0,1.1,0.9,2.1,2.1,2.1v4.1c0,1.1,0.9,2.1,2.1,2.1c1.1,0,2.1-0.9,2.1-2.1v-4.1c1.1,0,2.1-0.9,2.1-2.1
			v-2.1c1.1,0,2.1-0.9,2.1-2.1v-33C93,46.5,92.1,45.6,90.9,45.6z M84.7,49.7h4.1v28.9h-4.1V49.7z"/>
	</g>
	<g>
		<rect x="37.3" y="51.7" class="st1" width="4.1" height="4.1"/>
		<rect x="37.3" y="60" class="st1" width="4.1" height="4.1"/>
		<rect x="37.3" y="68.3" class="st1" width="4.1" height="4.1"/>
		<rect x="37.3" y="76.5" class="st1" width="4.1" height="4.1"/>
	</g>
</g>
</svg>
