<?xml version="1.0" encoding="utf-8"?>
<!-- Generator: Adobe Illustrator 22.1.0, SVG Export Plug-In . SVG Version: 6.00 Build 0)  -->
<svg version="1.1" id="Capa_1" xmlns="http://www.w3.org/2000/svg" xmlns:xlink="http://www.w3.org/1999/xlink" x="0px" y="0px"
	 viewBox="0 0 120 120" style="enable-background:new 0 0 120 120;" xml:space="preserve">
<style type="text/css">
	.st0{fill:#FFDC5D;}
	.st1{fill:#016D38;}
</style>
<g>
	<circle class="st0" cx="60" cy="60" r="60"/>
</g>
<g>
	<g>
		<g>
			<g>
				<g>
					<g>
						<path class="st1" d="M93.3,55.6H77.8v-4.4H80c1.2,0,2.2-1,2.2-2.2v-4.4h4.4c1.2,0,2.2-1,2.2-2.2v-8.9c0-1.2-1-2.2-2.2-2.2
							h-4.4v-4.4c0-1.2-1-2.2-2.2-2.2h-8.9c-1.2,0-2.2,1-2.2,2.2v4.4h-4.4c-1.2,0-2.2,1-2.2,2.2v8.9c0,1.2,1,2.2,2.2,2.2h4.4v4.4
							c0,1.2,1,2.2,2.2,2.2h2.2v4.4H55.6v-20c0-1.2-1-2.2-2.2-2.2H26.7c-1.2,0-2.2,1-2.2,2.2v57.7c0,1.2,1,2.2,2.2,2.2h26.6h39.9
							c1.2,0,2.2-1,2.2-2.2V57.8C95.5,56.6,94.5,55.6,93.3,55.6z M51.1,57.8v33.3H28.9V37.8h22.2V57.8z M71.1,40h-4.4v-4.4h4.4
							c1.2,0,2.2-1,2.2-2.2v-4.4h4.4v4.4c0,1.2,1,2.2,2.2,2.2h4.4V40H80c-1.2,0-2.2,1-2.2,2.2v4.4h-4.4v-4.4
							C73.3,41,72.3,40,71.1,40z M91.1,91.1h-4.4v-6.7c0-1.2-1-2.2-2.2-2.2c-1.2,0-2.2,1-2.2,2.2v6.7H64.4v-6.7c0-1.2-1-2.2-2.2-2.2
							c-1.2,0-2.2,1-2.2,2.2v6.7h-4.4V60h35.5V91.1z"/>
					</g>
				</g>
			</g>
		</g>
	</g>
	<g>
		<g>
			<g>
				<g>
					<g>
						<rect x="33.4" y="44.5" class="st1" width="4.4" height="4.4"/>
					</g>
				</g>
			</g>
		</g>
	</g>
	<g>
		<g>
			<g>
				<g>
					<g>
						<rect x="42.3" y="44.5" class="st1" width="4.4" height="4.4"/>
					</g>
				</g>
			</g>
		</g>
	</g>
	<g>
		<g>
			<g>
				<g>
					<g>
						<rect x="33.4" y="53.3" class="st1" width="4.4" height="4.4"/>
					</g>
				</g>
			</g>
		</g>
	</g>
	<g>
		<g>
			<g>
				<g>
					<g>
						<rect x="42.3" y="53.3" class="st1" width="4.4" height="4.4"/>
					</g>
				</g>
			</g>
		</g>
	</g>
	<g>
		<g>
			<g>
				<g>
					<g>
						<rect x="33.4" y="62.2" class="st1" width="4.4" height="4.4"/>
					</g>
				</g>
			</g>
		</g>
	</g>
	<g>
		<g>
			<g>
				<g>
					<g>
						<rect x="42.3" y="62.2" class="st1" width="4.4" height="4.4"/>
					</g>
				</g>
			</g>
		</g>
	</g>
	<g>
		<g>
			<g>
				<g>
					<g>
						<rect x="33.4" y="71.1" class="st1" width="4.4" height="4.4"/>
					</g>
				</g>
			</g>
		</g>
	</g>
	<g>
		<g>
			<g>
				<g>
					<g>
						<rect x="42.3" y="71.1" class="st1" width="4.4" height="4.4"/>
					</g>
				</g>
			</g>
		</g>
	</g>
	<g>
		<g>
			<g>
				<g>
					<g>
						<rect x="60" y="64.4" class="st1" width="4.4" height="4.4"/>
					</g>
				</g>
			</g>
		</g>
	</g>
	<g>
		<g>
			<g>
				<g>
					<g>
						<rect x="71.1" y="64.4" class="st1" width="4.4" height="4.4"/>
					</g>
				</g>
			</g>
		</g>
	</g>
	<g>
		<g>
			<g>
				<g>
					<g>
						<rect x="82.2" y="64.4" class="st1" width="4.4" height="4.4"/>
					</g>
				</g>
			</g>
		</g>
	</g>
	<g>
		<g>
			<g>
				<g>
					<g>
						<rect x="60" y="73.3" class="st1" width="4.4" height="4.4"/>
					</g>
				</g>
			</g>
		</g>
	</g>
	<g>
		<g>
			<g>
				<g>
					<g>
						<rect x="71.1" y="73.3" class="st1" width="4.4" height="4.4"/>
					</g>
				</g>
			</g>
		</g>
	</g>
	<g>
		<g>
			<g>
				<g>
					<g>
						<rect x="71.1" y="82.2" class="st1" width="4.4" height="4.4"/>
					</g>
				</g>
			</g>
		</g>
	</g>
	<g>
		<g>
			<g>
				<g>
					<g>
						<rect x="82.2" y="73.3" class="st1" width="4.4" height="4.4"/>
					</g>
				</g>
			</g>
		</g>
	</g>
	<g>
		<g>
			<g>
				<g>
					<g>
						<rect x="33.4" y="80" class="st1" width="4.4" height="4.4"/>
					</g>
				</g>
			</g>
		</g>
	</g>
	<g>
		<g>
			<g>
				<g>
					<g>
						<rect x="42.3" y="80" class="st1" width="4.4" height="4.4"/>
					</g>
				</g>
			</g>
		</g>
	</g>
</g>
</svg>
