<?xml version="1.0" encoding="utf-8"?>
<!-- Generator: Adobe Illustrator 23.0.2, SVG Export Plug-In . SVG Version: 6.00 Build 0)  -->
<svg version="1.1" id="Capa_1" xmlns="http://www.w3.org/2000/svg" xmlns:xlink="http://www.w3.org/1999/xlink" x="0px" y="0px"
	 viewBox="0 0 434 77" style="enable-background:new 0 0 434 77;" xml:space="preserve">
<style type="text/css">
	.st0{fill:#FFFFFF;}
	.st1{fill-rule:evenodd;clip-rule:evenodd;fill:#FFFFFF;}
</style>
<g>
	<path class="st0" d="M146.7,38.6c0,1.4,0.3,2.5,1,3.2c0.7,0.7,1.5,1.1,2.5,1.1c1,0,1.8-0.4,2.5-1.1c0.6-0.7,1-1.8,1-3.3
		c0-1.4-0.3-2.5-0.9-3.2c-0.6-0.7-1.5-1.1-2.5-1.1c-1,0-1.9,0.4-2.5,1.1C147,36,146.7,37.1,146.7,38.6 M144.1,38.6
		c0-1.3,0.2-2.3,0.6-3.2c0.3-0.6,0.7-1.2,1.2-1.7c0.5-0.5,1-0.9,1.6-1.1c0.8-0.3,1.7-0.5,2.7-0.5c1.8,0,3.3,0.6,4.4,1.7
		c1.1,1.1,1.7,2.7,1.7,4.8c0,2-0.5,3.6-1.6,4.7c-1.1,1.1-2.6,1.7-4.4,1.7c-1.9,0-3.3-0.6-4.4-1.7C144.6,42.2,144.1,40.6,144.1,38.6z
		 M128.7,34.4v8.3h1.9c0.7,0,1.2,0,1.5-0.1c0.4-0.1,0.7-0.3,1-0.5c0.3-0.2,0.5-0.6,0.7-1.2c0.2-0.6,0.3-1.3,0.3-2.3
		c0-1-0.1-1.7-0.3-2.2c-0.2-0.5-0.4-0.9-0.7-1.2c-0.3-0.3-0.7-0.5-1.2-0.6c-0.4-0.1-1-0.1-2.1-0.1H128.7z M126.2,32.3h4.6
		c1,0,1.8,0.1,2.4,0.2c0.7,0.2,1.4,0.6,1.9,1.2c0.5,0.6,0.9,1.2,1.2,2c0.3,0.8,0.4,1.8,0.4,3c0,1-0.1,1.9-0.4,2.7
		c-0.3,0.9-0.8,1.6-1.3,2.2c-0.4,0.4-1,0.8-1.8,1c-0.6,0.2-1.3,0.3-2.2,0.3h-4.7V32.3z M114.4,39.9l-1.7-4.6l-1.7,4.6H114.4z
		 M119.1,44.8h-2.7l-1.1-2.8h-5l-1,2.8h-2.7l4.9-12.5h2.7L119.1,44.8z M91.4,44.8V32.4h2.5v10.3h6.3v2.1H91.4z M80.6,44.8V32.3h2.5
		v12.5H80.6z M67.1,40.2v-2.1h5.4v5c-0.5,0.5-1.3,1-2.3,1.4c-1,0.4-2,0.6-3,0.6c-1.3,0-2.4-0.3-3.4-0.8c-1-0.6-1.7-1.3-2.2-2.4
		c-0.5-1-0.7-2.1-0.7-3.3c0-1.3,0.3-2.5,0.8-3.5c0.5-1,1.3-1.8,2.4-2.3c0.8-0.4,1.8-0.6,3-0.6c1.6,0,2.8,0.3,3.6,1
		c0.9,0.7,1.4,1.6,1.7,2.7l-2.5,0.5c-0.2-0.6-0.5-1.1-1-1.5c-0.5-0.4-1.1-0.5-1.8-0.5c-1.1,0-2,0.3-2.6,1c-0.7,0.7-1,1.7-1,3.1
		c0,1.5,0.3,2.6,1,3.3c0.7,0.7,1.5,1.1,2.6,1.1c0.5,0,1.1-0.1,1.6-0.3c0.5-0.2,1-0.5,1.4-0.8v-1.6H67.1z M50.6,44.8V32.3h2.5v12.5
		H50.6z M36.4,44.8L32,32.3h2.7l3.2,9.3l3.1-9.3h2.7l-4.5,12.5H36.4z"/>
	<path class="st0" d="M405.7,31h3.6l-1.1-2.9c-0.3-0.9-0.6-1.6-0.7-2.2c-0.1,0.7-0.3,1.3-0.6,2L405.7,31z M402.6,35.4l4-10.5h1.5
		l4.3,10.5h-1.6l-1.2-3.2h-4.4l-1.2,3.2H402.6z M394.6,29.5h3c0.6,0,1.1-0.1,1.5-0.2c0.4-0.1,0.6-0.3,0.8-0.6
		c0.2-0.3,0.3-0.6,0.3-0.9c0-0.5-0.2-0.9-0.5-1.2c-0.4-0.3-0.9-0.5-1.7-0.5h-3.3V29.5z M393.2,35.4V24.9h4.7c0.9,0,1.6,0.1,2.1,0.3
		c0.5,0.2,0.9,0.5,1.2,1c0.3,0.5,0.4,1,0.4,1.6c0,0.7-0.2,1.4-0.7,1.9c-0.5,0.5-1.2,0.8-2.2,1c0.4,0.2,0.6,0.3,0.8,0.5
		c0.4,0.4,0.8,0.8,1.2,1.4l1.8,2.9h-1.7l-1.4-2.2c-0.4-0.6-0.7-1.1-1-1.4c-0.3-0.3-0.5-0.6-0.7-0.7c-0.2-0.1-0.4-0.2-0.6-0.3
		c-0.2,0-0.4,0-0.8,0h-1.6v4.7H393.2z M383.4,35.4V24.9h7.6v1.2h-6.2v3.2h5.8v1.2h-5.8v3.6h6.5v1.2H383.4z M379.6,35.4V24.9h1.4
		v10.5H379.6z M376.2,31.7l1.4,0.4c-0.3,1.1-0.8,2-1.6,2.6c-0.8,0.6-1.7,0.9-2.8,0.9c-1.1,0-2.1-0.2-2.8-0.7c-0.7-0.5-1.2-1.1-1.6-2
		c-0.4-0.9-0.6-1.8-0.6-2.8c0-1.1,0.2-2,0.6-2.9c0.4-0.8,1-1.4,1.8-1.9c0.8-0.4,1.6-0.6,2.5-0.6c1.1,0,1.9,0.3,2.7,0.8
		c0.7,0.5,1.2,1.3,1.5,2.3l-1.4,0.3c-0.2-0.8-0.6-1.3-1.1-1.7c-0.5-0.3-1-0.5-1.7-0.5c-0.8,0-1.5,0.2-2,0.6
		c-0.5,0.4-0.9,0.9-1.1,1.6c-0.2,0.7-0.3,1.3-0.3,2c0,0.9,0.1,1.7,0.4,2.3c0.3,0.7,0.7,1.2,1.2,1.5c0.6,0.3,1.1,0.5,1.8,0.5
		c0.8,0,1.4-0.2,2-0.7C375.7,33.2,376,32.6,376.2,31.7z M358.1,35.4V24.9h1.4l5.5,8.2v-8.2h1.3v10.5H365l-5.5-8.3v8.3H358.1z
		 M350.2,31h3.6l-1.1-2.9c-0.3-0.9-0.6-1.6-0.7-2.2c-0.1,0.7-0.3,1.3-0.6,2L350.2,31z M347.2,35.4l4-10.5h1.5l4.3,10.5h-1.6
		l-1.2-3.2h-4.4l-1.2,3.2H347.2z M337.7,35.4V24.9h1.4l5.5,8.2v-8.2h1.3v10.5h-1.4l-5.5-8.3v8.3H337.7z M333.9,35.4V24.9h1.4v10.5
		H333.9z M324.8,35.4V24.9h7.1v1.2h-5.7v3.3h4.9v1.2h-4.9v4.8H324.8z M313.5,31h3.6l-1.1-2.9c-0.3-0.9-0.6-1.6-0.7-2.2
		c-0.1,0.7-0.3,1.3-0.6,2L313.5,31z M310.5,35.4l4-10.5h1.5l4.3,10.5h-1.6l-1.2-3.2h-4.4l-1.2,3.2H310.5z M307.8,35.4V24.9h1.4v10.5
		H307.8z M304.5,31.7l1.4,0.4c-0.3,1.1-0.8,2-1.6,2.6c-0.8,0.6-1.7,0.9-2.8,0.9c-1.1,0-2.1-0.2-2.8-0.7c-0.7-0.5-1.2-1.1-1.6-2
		c-0.4-0.9-0.6-1.8-0.6-2.8c0-1.1,0.2-2,0.6-2.9c0.4-0.8,1-1.4,1.8-1.9c0.8-0.4,1.6-0.6,2.5-0.6c1.1,0,1.9,0.3,2.7,0.8
		c0.7,0.5,1.2,1.3,1.5,2.3l-1.4,0.3c-0.2-0.8-0.6-1.3-1.1-1.7c-0.5-0.3-1-0.5-1.7-0.5c-0.8,0-1.5,0.2-2,0.6
		c-0.5,0.4-0.9,0.9-1.1,1.6c-0.2,0.7-0.3,1.3-0.3,2c0,0.9,0.1,1.7,0.4,2.3c0.3,0.7,0.7,1.2,1.2,1.5c0.6,0.3,1.1,0.5,1.8,0.5
		c0.8,0,1.4-0.2,2-0.7C303.9,33.2,304.3,32.6,304.5,31.7z M286.4,35.4V24.9h1.4l5.5,8.2v-8.2h1.3v10.5h-1.4l-5.5-8.3v8.3H286.4z
		 M276.6,35.4V24.9h7.6v1.2H278v3.2h5.8v1.2H278v3.6h6.5v1.2H276.6z M267.4,34.1h2.2c0.7,0,1.2-0.1,1.6-0.2c0.4-0.1,0.7-0.3,0.9-0.5
		c0.3-0.3,0.6-0.8,0.8-1.3c0.2-0.6,0.3-1.2,0.3-2c0-1.1-0.2-1.9-0.5-2.5c-0.4-0.6-0.8-1-1.3-1.2c-0.4-0.1-1-0.2-1.8-0.2h-2.2V34.1z
		 M266,35.4V24.9h3.6c0.8,0,1.4,0.1,1.9,0.2c0.6,0.1,1.1,0.4,1.5,0.8c0.6,0.5,1,1.1,1.2,1.8c0.3,0.7,0.4,1.6,0.4,2.5
		c0,0.8-0.1,1.5-0.3,2.1c-0.2,0.6-0.4,1.1-0.7,1.5c-0.3,0.4-0.6,0.7-1,1c-0.3,0.2-0.8,0.4-1.3,0.5c-0.5,0.1-1.1,0.2-1.7,0.2H266z
		 M255.4,35.4V24.9h1.4l5.5,8.2v-8.2h1.3v10.5h-1.4l-5.5-8.3v8.3H255.4z M245.6,35.4V24.9h7.6v1.2H247v3.2h5.8v1.2H247v3.6h6.5v1.2
		H245.6z M239.3,35.4v-9.3h-3.5v-1.2h8.3v1.2h-3.5v9.3H239.3z M226,35.4V24.9h1.4l5.5,8.2v-8.2h1.3v10.5h-1.4l-5.5-8.3v8.3H226z
		 M222.2,35.4V24.9h1.4v10.5H222.2z M212.8,29.5h3c0.6,0,1.1-0.1,1.5-0.2c0.4-0.1,0.6-0.3,0.8-0.6c0.2-0.3,0.3-0.6,0.3-0.9
		c0-0.5-0.2-0.9-0.5-1.2c-0.4-0.3-0.9-0.5-1.7-0.5h-3.3V29.5z M211.4,35.4V24.9h4.7c0.9,0,1.6,0.1,2.1,0.3c0.5,0.2,0.9,0.5,1.2,1
		c0.3,0.5,0.4,1,0.4,1.6c0,0.7-0.2,1.4-0.7,1.9c-0.5,0.5-1.2,0.8-2.2,1c0.4,0.2,0.6,0.3,0.8,0.5c0.4,0.4,0.8,0.8,1.2,1.4l1.8,2.9
		h-1.7l-1.4-2.2c-0.4-0.6-0.7-1.1-1-1.4c-0.3-0.3-0.5-0.6-0.7-0.7c-0.2-0.1-0.4-0.2-0.6-0.3c-0.2,0-0.4,0-0.8,0h-1.6v4.7H211.4z
		 M201.6,35.4V24.9h7.6v1.2H203v3.2h5.8v1.2H203v3.6h6.5v1.2H201.6z M193.2,29.8h2.7c0.9,0,1.5-0.2,1.9-0.5c0.4-0.3,0.6-0.8,0.6-1.4
		c0-0.4-0.1-0.8-0.3-1.1c-0.2-0.3-0.5-0.5-0.9-0.6c-0.2-0.1-0.7-0.1-1.3-0.1h-2.7V29.8z M191.8,35.4V24.9h4c0.7,0,1.2,0,1.6,0.1
		c0.5,0.1,0.9,0.2,1.3,0.5c0.3,0.2,0.6,0.6,0.8,1c0.2,0.4,0.3,0.9,0.3,1.4c0,0.9-0.3,1.7-0.9,2.3c-0.6,0.6-1.6,0.9-3.1,0.9h-2.7v4.3
		H191.8z M188.1,24.9h1.4v6.1c0,1.1-0.1,1.9-0.4,2.5c-0.2,0.6-0.7,1.1-1.3,1.5c-0.6,0.4-1.4,0.6-2.5,0.6c-1,0-1.8-0.2-2.4-0.5
		c-0.6-0.3-1.1-0.8-1.3-1.5c-0.3-0.6-0.4-1.5-0.4-2.6v-6.1h1.4v6.1c0,0.9,0.1,1.6,0.3,2c0.2,0.4,0.5,0.8,0.9,1
		c0.4,0.2,0.9,0.4,1.5,0.4c1,0,1.8-0.2,2.2-0.7c0.4-0.5,0.7-1.4,0.7-2.7V24.9z M170.9,32l1.3-0.1c0.1,0.5,0.2,1,0.4,1.3
		c0.2,0.3,0.6,0.6,1.1,0.8c0.5,0.2,1,0.3,1.6,0.3c0.5,0,1-0.1,1.4-0.2c0.4-0.2,0.7-0.4,0.9-0.6c0.2-0.3,0.3-0.6,0.3-0.9
		c0-0.3-0.1-0.6-0.3-0.9c-0.2-0.2-0.5-0.5-0.9-0.6c-0.3-0.1-0.9-0.3-1.9-0.5c-1-0.2-1.6-0.5-2-0.7c-0.5-0.3-0.9-0.6-1.1-1
		c-0.2-0.4-0.4-0.8-0.4-1.3c0-0.5,0.1-1,0.5-1.5c0.3-0.5,0.7-0.8,1.3-1.1c0.6-0.2,1.2-0.4,1.9-0.4c0.8,0,1.5,0.1,2.1,0.4
		c0.6,0.2,1.1,0.6,1.4,1.1c0.3,0.5,0.5,1,0.5,1.7l-1.3,0.1c-0.1-0.7-0.3-1.2-0.7-1.5c-0.4-0.3-1-0.5-1.8-0.5c-0.8,0-1.5,0.2-1.8,0.5
		c-0.4,0.3-0.6,0.7-0.6,1.1c0,0.4,0.1,0.7,0.4,0.9c0.3,0.2,1,0.5,2.1,0.7c1.1,0.3,1.9,0.5,2.3,0.7c0.6,0.3,1.1,0.6,1.4,1.1
		c0.3,0.4,0.4,0.9,0.4,1.5c0,0.6-0.2,1.1-0.5,1.6c-0.3,0.5-0.8,0.9-1.4,1.2c-0.6,0.3-1.3,0.4-2,0.4c-1,0-1.7-0.1-2.4-0.4
		c-0.6-0.3-1.1-0.7-1.5-1.3C171.1,33.3,170.9,32.7,170.9,32z"/>
	<path class="st0" d="M335.5,47.4h3.6l-1.1-2.9c-0.3-0.9-0.6-1.6-0.7-2.2c-0.1,0.7-0.3,1.3-0.6,2L335.5,47.4z M332.5,51.8l4-10.5
		h1.5l4.3,10.5h-1.6l-1.2-3.2h-4.4l-1.2,3.2H332.5z M329.8,51.8V41.2h1.4v10.5H329.8z M321.1,50.5h2.6c0.5,0,0.8,0,0.9,0
		c0.3-0.1,0.6-0.2,0.8-0.3c0.2-0.1,0.4-0.3,0.5-0.6c0.1-0.3,0.2-0.6,0.2-0.9c0-0.4-0.1-0.7-0.3-1c-0.2-0.3-0.5-0.5-0.8-0.6
		c-0.4-0.1-0.9-0.2-1.5-0.2h-2.4V50.5z M321.1,45.7h2.3c0.6,0,1.1,0,1.3-0.1c0.4-0.1,0.6-0.3,0.8-0.5c0.2-0.2,0.3-0.6,0.3-0.9
		c0-0.3-0.1-0.7-0.2-0.9c-0.2-0.3-0.4-0.4-0.7-0.5c-0.3-0.1-0.8-0.1-1.6-0.1h-2.1V45.7z M319.7,51.8V41.2h3.9c0.8,0,1.4,0.1,1.9,0.3
		c0.5,0.2,0.9,0.5,1.1,1c0.3,0.4,0.4,0.9,0.4,1.4c0,0.4-0.1,0.9-0.4,1.3c-0.2,0.4-0.6,0.7-1.1,1c0.6,0.2,1.1,0.5,1.5,1
		c0.3,0.5,0.5,1,0.5,1.6c0,0.5-0.1,0.9-0.3,1.4c-0.2,0.4-0.5,0.7-0.8,1c-0.3,0.2-0.7,0.4-1.1,0.5c-0.5,0.1-1,0.2-1.7,0.2H319.7z
		 M307.5,51.8V41.2h2.1l2.5,7.4c0.2,0.7,0.4,1.2,0.5,1.6c0.1-0.4,0.3-0.9,0.6-1.7l2.5-7.3h1.9v10.5h-1.3V43l-3.1,8.8h-1.3l-3-8.9
		v8.9H307.5z M297.2,46.7c0,1.3,0.3,2.3,1,3c0.7,0.7,1.5,1.1,2.6,1.1c1,0,1.9-0.4,2.6-1.1c0.7-0.7,1-1.8,1-3.1
		c0-0.9-0.1-1.6-0.4-2.2c-0.3-0.6-0.7-1.1-1.3-1.5c-0.6-0.3-1.2-0.5-1.9-0.5c-1,0-1.8,0.3-2.5,1C297.5,43.9,297.2,45.1,297.2,46.7z
		 M295.7,46.6c0-1.7,0.5-3.1,1.4-4.1c0.9-1,2.1-1.5,3.6-1.5c1,0,1.8,0.2,2.6,0.7c0.8,0.5,1.4,1.1,1.8,1.9c0.4,0.8,0.6,1.8,0.6,2.8
		c0,1.1-0.2,2-0.6,2.9c-0.4,0.8-1,1.5-1.8,1.9c-0.8,0.4-1.6,0.6-2.6,0.6c-1,0-1.9-0.2-2.7-0.7c-0.8-0.5-1.4-1.1-1.8-2
		C295.9,48.4,295.7,47.6,295.7,46.6z M287.9,51.8V41.2h1.4v9.3h5.2v1.2H287.9z M277.6,46.7c0,1.3,0.3,2.3,1,3
		c0.7,0.7,1.5,1.1,2.6,1.1c1,0,1.9-0.4,2.6-1.1c0.7-0.7,1-1.8,1-3.1c0-0.9-0.1-1.6-0.4-2.2c-0.3-0.6-0.7-1.1-1.3-1.5
		c-0.6-0.3-1.2-0.5-1.9-0.5c-1,0-1.8,0.3-2.5,1C277.9,43.9,277.6,45.1,277.6,46.7z M276.2,46.6c0-1.7,0.5-3.1,1.4-4.1
		c0.9-1,2.1-1.5,3.6-1.5c1,0,1.8,0.2,2.6,0.7c0.8,0.5,1.4,1.1,1.8,1.9c0.4,0.8,0.6,1.8,0.6,2.8c0,1.1-0.2,2-0.6,2.9
		c-0.4,0.8-1,1.5-1.8,1.9c-0.8,0.4-1.6,0.6-2.6,0.6c-1,0-1.9-0.2-2.7-0.7c-0.8-0.5-1.4-1.1-1.8-2C276.4,48.4,276.2,47.6,276.2,46.6z
		 M273.5,48.1l1.4,0.4c-0.3,1.1-0.8,2-1.6,2.6c-0.8,0.6-1.7,0.9-2.8,0.9c-1.1,0-2.1-0.2-2.8-0.7c-0.7-0.5-1.3-1.1-1.6-2
		c-0.4-0.9-0.6-1.8-0.6-2.8c0-1.1,0.2-2,0.6-2.9c0.4-0.8,1-1.4,1.8-1.9c0.8-0.4,1.6-0.6,2.5-0.6c1.1,0,1.9,0.3,2.7,0.8
		c0.7,0.5,1.2,1.3,1.5,2.3l-1.4,0.3c-0.2-0.8-0.6-1.3-1.1-1.7c-0.5-0.3-1-0.5-1.7-0.5c-0.8,0-1.5,0.2-2,0.6
		c-0.5,0.4-0.9,0.9-1.1,1.6c-0.2,0.7-0.3,1.3-0.3,2c0,0.9,0.1,1.7,0.4,2.3c0.3,0.7,0.7,1.2,1.2,1.5c0.6,0.3,1.1,0.5,1.8,0.5
		c0.8,0,1.4-0.2,2-0.7C272.9,49.6,273.3,49,273.5,48.1z M252.1,51.8V41.2h7.6v1.2h-6.2v3.2h5.8v1.2h-5.8v3.6h6.5v1.2H252.1z
		 M242.9,50.5h2.2c0.7,0,1.2-0.1,1.6-0.2c0.4-0.1,0.7-0.3,0.9-0.5c0.3-0.3,0.6-0.8,0.8-1.3c0.2-0.6,0.3-1.2,0.3-2
		c0-1.1-0.2-1.9-0.5-2.5c-0.4-0.6-0.8-1-1.3-1.2c-0.4-0.1-1-0.2-1.8-0.2h-2.2V50.5z M241.5,51.8V41.2h3.6c0.8,0,1.4,0.1,1.9,0.2
		c0.6,0.1,1.1,0.4,1.5,0.8c0.6,0.5,1,1.1,1.2,1.8c0.3,0.7,0.4,1.6,0.4,2.5c0,0.8-0.1,1.5-0.3,2.1c-0.2,0.6-0.4,1.1-0.7,1.5
		c-0.3,0.4-0.6,0.7-1,1c-0.3,0.2-0.8,0.4-1.3,0.5c-0.5,0.1-1.1,0.2-1.7,0.2H241.5z"/>
	<rect x="23.9" y="20.4" class="st1" width="138.3" height="3.1"/>
	<rect x="23.9" y="52.4" class="st1" width="138.3" height="3.1"/>
</g>
</svg>
