<?xml version="1.0" encoding="utf-8"?>
<!-- Generator: Adobe Illustrator 22.1.0, SVG Export Plug-In . SVG Version: 6.00 Build 0)  -->
<svg version="1.1" id="Capa_1" xmlns="http://www.w3.org/2000/svg" xmlns:xlink="http://www.w3.org/1999/xlink" x="0px" y="0px"
	 viewBox="0 0 194 158" style="enable-background:new 0 0 194 158;" xml:space="preserve">
<style type="text/css">
	.st0{fill:#B93B4E;}
</style>
<g>
	<path class="st0" d="M172.7,116.9l-60.1-95.2c-3.5-5.5-9.3-8.7-15.8-8.7S84.4,16.3,81,21.7l-59.7,95.2v0.2c-1.6,2.7-2.5,6-2.5,9.3
		c0,10.2,8.4,18.6,18.6,18.6h119.1c10.2,0,18.6-8.4,18.6-18.6C175.2,123.1,174.3,119.8,172.7,116.9z M156.7,134H37.2
		c-4.2,0-7.6-3.5-7.6-7.6c0-1.3,0.4-2.5,0.9-3.6l59.9-95.1c1.5-2.4,3.8-3.6,6.6-3.6c2.7,0,5.1,1.3,6.6,3.6l59.9,94.9
		c0.7,1.1,0.9,2.4,0.9,3.8C164.3,130.5,160.8,134,156.7,134z"/>
	<path class="st0" d="M96.9,109.4c-2.2,0-3.8,0.7-5.3,2.2s-2.2,3.3-2.2,5.3c0,2.4,0.7,4.2,2.4,5.5c1.5,1.3,3.3,2,5.3,2
		s3.8-0.7,5.3-2s2.2-3.1,2.2-5.5c0-2-0.7-3.8-2.2-5.3C100.7,110.1,98.9,109.4,96.9,109.4z"/>
	<path class="st0" d="M97.3,48.4c-2.4,0-4.4,0.7-5.8,2.4c-1.5,1.6-2.2,3.6-2.2,6.6c0,2,0.2,5.5,0.4,10l1.6,24
		c0.4,3.1,0.7,5.5,1.5,6.9c0.7,1.5,2,2.4,3.8,2.4s3.1-0.7,3.8-2.4c0.7-1.6,1.3-3.8,1.5-6.7l2.4-24.8c0.2-2.4,0.4-4.6,0.4-6.7
		c0-3.8-0.5-6.6-1.5-8.6C102,49.3,100.2,48.4,97.3,48.4z"/>
</g>
</svg>
