<?xml version="1.0" encoding="utf-8"?>
<!-- Generator: Adobe Illustrator 22.1.0, SVG Export Plug-In . SVG Version: 6.00 Build 0)  -->
<svg version="1.1" id="Capa_1" xmlns="http://www.w3.org/2000/svg" xmlns:xlink="http://www.w3.org/1999/xlink" x="0px" y="0px"
	 viewBox="0 0 160 159" style="enable-background:new 0 0 160 159;" xml:space="preserve">
<style type="text/css">
	.st0{fill:#CBCBCB;}
</style>
<g>
	<path class="st0" d="M76.6,109.3L39.8,72.5c-5.7-5.7,3.3-14.6,9-9l25.9,26.4V22c0-8,12.7-8,12.7,0v67.9l25.9-26.4
		c6.1-5.7,14.6,2.8,9,9l-36.8,36.8C83.2,111.6,79.5,111.6,76.6,109.3z"/>
	<path class="st0" d="M8.2,140.9v-41c0-8,12.3-8,12.3,0v34.9h121.2V99.9c0-8,12.3-8,12.3,0v41c0,3.3-2.8,6.1-6.1,6.1H14.4
		C11.1,147,8.2,144.2,8.2,140.9z"/>
</g>
</svg>
