<?xml version="1.0" encoding="utf-8"?>
<!-- Generator: Adobe Illustrator 22.1.0, SVG Export Plug-In . SVG Version: 6.00 Build 0)  -->
<svg version="1.1" id="Capa_1" xmlns="http://www.w3.org/2000/svg" xmlns:xlink="http://www.w3.org/1999/xlink" x="0px" y="0px"
	 viewBox="0 0 160 159" style="enable-background:new 0 0 160 159;" xml:space="preserve">
<style type="text/css">
	.st0{fill:#016D38;}
</style>
<g>
	<path class="st0" d="M147.2,74.6c-3.9,0-6.9,3-6.9,6.9v47.6H20.9V81.3c0-3.9-3-6.9-6.9-6.9s-6.9,3-6.9,6.9V136c0,3.9,3,6.9,6.9,6.9
		h133.3c3.9,0,6.9-3,6.9-6.9V81.3C154.1,77.6,151.1,74.6,147.2,74.6z"/>
	<path class="st0" d="M85.2,20c-0.2-0.2-0.3-0.3-0.7-0.5c-0.2,0-0.2-0.2-0.5-0.3c-1-0.8-2.4-1.2-3.7-1.2c-0.8,0-1.9,0.2-2.7,0.5
		s-1.7,0.8-2.4,1.4L41.5,54c-1.4,1.4-2,3.2-2,5.1s0.8,3.4,2,4.6c1.4,1.4,2.9,2,4.9,2s3.7-0.7,4.9-2l22-22.1v70.3
		c0,3.9,3,6.9,6.9,6.9s6.9-3,6.9-6.9V41.5l22.5,22.1c1.4,1.4,2.9,2,4.9,2s3.7-0.7,4.9-2c1.4-1.4,2-3.2,2-5.1s-0.8-3.4-2-4.6L85.2,20
		z"/>
</g>
</svg>
