<?xml version="1.0" encoding="utf-8"?>
<!-- Generator: Adobe Illustrator 22.1.0, SVG Export Plug-In . SVG Version: 6.00 Build 0)  -->
<svg version="1.1" id="Capa_1" xmlns="http://www.w3.org/2000/svg" xmlns:xlink="http://www.w3.org/1999/xlink" x="0px" y="0px"
	 viewBox="0 0 139 159" style="enable-background:new 0 0 139 159;" xml:space="preserve">
<style type="text/css">
	.st0{fill:#CBCBCB;}
</style>
<path class="st0" d="M129.8,71.1L72.5,16.5c-2.1-2-5.4-2-7.5,0L41.5,38.9v-7.5c0-3-2.4-5.5-5.5-5.5s-5.5,2.4-5.5,5.5v17.9L7.6,71.1
	c-2.2,2.1-2.3,5.5-0.2,7.7s5.5,2.3,7.7,0.2l1.7-1.6v63.2c0,3,2.4,5.5,5.5,5.5h92.8c3,0,5.5-2.4,5.5-5.5V77.4l1.7,1.6
	c2.2,2.1,5.6,2,7.7-0.2C132.1,76.6,132,73.2,129.8,71.1z M109.7,135.1H27.8V67l40.9-39l40.9,39L109.7,135.1L109.7,135.1z"/>
</svg>
